<?xml version="1.0" encoding="utf-8"?>
<!-- Generator: Adobe Illustrator 28.0.0, SVG Export Plug-In . SVG Version: 6.00 Build 0)  -->
<svg version="1.1" id="Layer_1" xmlns="http://www.w3.org/2000/svg" xmlns:xlink="http://www.w3.org/1999/xlink" x="0px" y="0px"
	 viewBox="0 0 3234.43 868.65" style="enable-background:new 0 0 3234.43 868.65;" xml:space="preserve">
<style type="text/css">
	.st0{fill:#422A24;}
	.st1{fill:#A46755;}
</style>
<g>
	<path class="st0" d="M1165.9,321.38h74.27v8.86c-8.38,0.43-16.22,5.18-23.52,14.26c-7.31,9.08-14.56,22.69-21.75,40.84
		l-66.7,167.72h-8.86l-82.17-195.75c-4.73-11.92-8.7-19.31-11.92-22.15c-3.22-2.84-9.56-4.48-19.01-4.91v-8.86h96.99v8.86h-2.74
		c-7.2,0-12.73,1.29-16.59,3.87c-3.87,2.58-5.8,6.12-5.8,10.63c0-0.32,0.35,1.51,1.05,5.48c0.7,3.98,1.48,6.98,2.34,9.02
		l58.65,140.33l42.21-106.01c6.01-14.71,9.02-26.69,9.02-35.93c0-8.7-2.23-15.44-6.69-20.22s-10.71-7.17-18.77-7.17v-8.86
		L1165.9,321.38z M1042.17,355.05l79.11,189.31c3.11-5.8,4.67-9.93,4.67-12.41s-1.56-7.19-4.67-13.86l-67.51-161.76
		c-2.9-6.98-5.42-12.3-7.57-15.95c-2.15-3.65-4.89-6.36-8.22-8.14c-3.33-1.77-8-2.87-14.02-3.3c3.97,1.51,7.14,4.08,9.51,7.73
		c2.36,3.65,5.26,9.78,8.7,18.37V355.05z M1214.08,330.24h-31.74c8.59,4.94,13.21,13.43,13.86,25.46
		C1200.93,344.21,1206.89,335.72,1214.08,330.24z"/>
	<path class="st0" d="M1259.02,321.38h107.3v8.86c-10.1,0.22-17.91,1.53-23.44,3.95c-5.53,2.42-8.51,7.28-8.94,14.58
		c-0.22,4.51-0.43,8.08-0.64,10.71c-0.22,2.63-0.32,3.79-0.32,3.46v148.55c0,6.34,0.67,11.39,2.01,15.14
		c1.34,3.76,3.25,6.44,5.72,8.06c2.47,1.61,5.32,2.71,8.54,3.3c3.22,0.59,8.91,1.21,17.08,1.85v8.86h-107.3v-8.86
		c9.56-0.11,16.78-1.1,21.67-2.98s8.06-4.89,9.51-9.02s2.17-10.71,2.17-19.74V364.23c0-8.59-0.4-14.96-1.21-19.09
		c-0.81-4.13-2.34-7.11-4.59-8.94c-2.26-1.83-5.29-3.09-9.1-3.79c-3.81-0.7-9.96-1.42-18.45-2.17v-8.86H1259.02z M1297.69,359.56
		v160.47c0,5.48-0.97,9.5-2.9,12.08s-5.26,5.16-9.99,7.73c6.98-0.21,12.62-1.37,16.92-3.46c4.29-2.09,6.44-6.69,6.44-13.78V351.66
		c0-7.3-1.51-12.78-4.51-16.43c-3.01-3.65-8.97-5.32-17.88-4.99c8.16,4.3,12.24,12.46,12.24,24.49c0,0.86-0.03,1.67-0.08,2.42
		C1297.87,357.9,1297.79,358.71,1297.69,359.56L1297.69,359.56z"/>
	<path class="st0" d="M1552.25,330.24v-8.86h86.2v8.86c-7.2,0.22-13.51,1.83-18.93,4.83c-5.42,3.01-9.69,7.39-12.81,13.13
		c-3.12,5.75-4.67,12.65-4.67,20.7l3.06,184.8h-9.99l-164.66-192.37l2.42,129.37c0.21,8.06,0.86,14.85,1.93,20.38
		c1.07,5.53,3.01,10.34,5.8,14.42c2.79,4.08,6.79,7.31,12,9.67s11.95,3.92,20.22,4.67v8.86h-85.55v-8.86
		c11.17-0.86,19.47-3.87,24.89-9.02c5.42-5.16,8.78-11.57,10.07-19.25c1.29-7.68,1.72-17.32,1.29-28.92l-2.26-131.95
		c-6.12-6.66-12.08-11.73-17.88-15.22s-11.82-5.24-18.04-5.24h-1.93v-8.86h66.54l145.16,169.33l-2.26-113.26
		c0-8.7-0.89-16.08-2.66-22.15c-1.77-6.07-4.75-10.98-8.94-14.74c-3.01-3.01-7.33-5.5-12.97-7.49s-10.98-2.92-16.03-2.82
		L1552.25,330.24z M1583.35,514.71l-145.16-169.33c-3.01-3.87-6.58-7.36-10.71-10.47c-4.14-3.11-9.96-4.67-17.48-4.67h-7.25
		c6.01,2.15,10.69,4.75,14.02,7.81c3.33,3.06,8,8.19,14.02,15.39l165.46,192.69c-0.11-3.11-0.24-6.15-0.4-9.1s-0.51-5.16-1.05-6.61
		s-1.56-3.25-3.06-5.4C1590.23,522.87,1587.44,519.44,1583.35,514.71L1583.35,514.71z M1407.09,539.84h34
		c-4.73-3.65-8.08-7.03-10.07-10.15c-1.99-3.11-3.68-7.46-5.07-13.05c-1.4,5.05-3.54,9.42-6.44,13.13
		c-2.9,3.71-7.04,7.06-12.41,10.07L1407.09,539.84z M1608.64,330.23h-35.28c5.37,1.83,9.75,4.35,13.13,7.57s6.26,7.63,8.62,13.21
		C1597.58,341.45,1602.09,334.52,1608.64,330.23L1608.64,330.23z"/>
	<path class="st0" d="M1727.38,436.26v70.89c0,7.84,0.56,13.94,1.69,18.29c1.13,4.35,3.19,7.57,6.2,9.67
		c3.01,2.09,7.33,3.41,12.97,3.95c5.64,0.54,13.34,0.81,23.12,0.81c11.81,0,22.42-1.8,31.82-5.4c9.4-3.6,18.26-8.91,26.58-15.95
		c8.32-7.03,17.43-16.41,27.31-28.11h12.89l-20.14,58.32h-198.33v-8.86c9.56-0.21,16.84-1.05,21.83-2.5s8.54-3.87,10.63-7.25
		s3.14-8.19,3.14-14.42V356.36c0-7.52-0.97-13-2.9-16.43c-1.93-3.44-5.21-5.77-9.83-7.01c-4.62-1.23-12.24-2.12-22.88-2.66v-8.86
		h190.44l19.49,51.4h-11.6c-6.23-7.84-13.83-14.96-22.8-21.35c-8.97-6.39-19.01-11.52-30.13-15.39s-22.85-5.8-35.2-5.8
		c-9.77,0-17.13,1.05-22.07,3.14s-8.22,5.02-9.83,8.78s-2.42,8.7-2.42,14.82v70.25h32.38c28.25,0,42.53-12.94,42.86-38.83h11.28
		v85.39h-9.99c-1.29-13.1-4.97-22.64-11.04-28.6c-6.07-5.96-15.33-8.94-27.79-8.94h-37.7L1727.38,436.26z M1692.42,357.64v155.8
		c0,7.84-0.91,13.59-2.74,17.24s-4.57,6.71-8.22,9.18c8.91-0.11,14.69-2.44,17.32-7.01c2.63-4.56,3.95-11.95,3.95-22.15V354.74
		c0-9.13-1.56-15.17-4.67-18.12c-3.12-2.95-8.65-4.54-16.59-4.75c3.97,2.15,6.79,5.02,8.46,8.62c1.66,3.6,2.5,9.32,2.5,17.16
		L1692.42,357.64z M1800.69,446.74v-31.58c-4.19,7.2-11.82,12.46-22.88,15.79c5.91,1.61,10.58,3.54,14.02,5.8
		C1795.27,439.01,1798.22,442.34,1800.69,446.74L1800.69,446.74z M1826.79,330.25h-29.16c8.06,2.69,15.2,5.91,21.43,9.67
		c6.23,3.76,12.83,8.27,19.82,13.53l-12.08-23.2L1826.79,330.25z M1833.72,539.86l11.12-28.03c-6.34,6.88-12.08,12-17.24,15.39
		c-5.16,3.38-12.46,7.6-21.91,12.65h28.03V539.86z"/>
	<path class="st0" d="M1895.42,466.87h10.63c5.91,16.97,13.02,31.23,21.35,42.78c8.32,11.55,17.4,20.11,27.23,25.7
		s20.11,8.38,30.85,8.38c13.43,0,24.92-4.19,34.48-12.57c9.56-8.38,14.34-19.12,14.34-32.22c0-12.24-3.17-21.78-9.51-28.6
		s-13.91-11.6-22.72-14.34c-8.81-2.74-20.41-5.29-34.8-7.65s-24.6-4.56-30.61-6.61c-9.34-3.22-17.29-7.65-23.84-13.29
		c-6.55-5.64-11.52-12.41-14.9-20.3s-5.08-16.35-5.08-25.38s1.5-16.86,4.51-24.81c3.01-7.95,7.25-14.98,12.73-21.11
		c5.48-6.12,12.16-10.96,20.06-14.5c7.89-3.54,16.68-5.32,26.34-5.32c6.98,0,15.55,0.99,25.7,2.98c10.15,1.99,17.53,2.98,22.15,2.98
		c5.8,0,11.28-1.29,16.43-3.87H2033l6.93,66.22h-11.28c-10.53-19.76-21.56-34.83-33.11-45.19c-11.55-10.36-25.11-15.55-40.68-15.55
		c-7.73,0-14.93,1.8-21.59,5.4c-6.66,3.6-12,8.57-16.03,14.9c-4.03,6.34-6.04,13.32-6.04,20.95c0,10.74,3.65,18.96,10.96,24.65
		c7.3,5.69,18.13,9.99,32.46,12.89c14.34,2.9,27.17,5.37,38.51,7.41c11.33,2.04,20.33,4.67,26.99,7.89
		c12.24,6.02,21.75,14.34,28.52,24.97c6.77,10.63,10.15,22.66,10.15,36.09s-3.12,24.92-9.34,36.09
		c-6.23,11.17-14.98,20.11-26.26,26.83c-11.28,6.71-23.84,10.07-37.7,10.07c-7.84,0-13.75-0.59-17.72-1.77
		c-3.98-1.18-10.79-3.49-20.46-6.93c-9.67-3.44-17.08-5.16-22.23-5.16c-8.59,0-15.41,3.28-20.46,9.83h-9.18v-81.85L1895.42,466.87z
		 M1900.74,363.92c-1.83,8.16-2.74,14.77-2.74,19.82c0,5.69,0.97,11.41,2.9,17.16s4.78,11.17,8.54,16.27s8,9.26,12.73,12.49
		c6.34,4.3,13.32,7.33,20.94,9.1s18.77,3.87,33.43,6.28c14.66,2.42,24.78,4.75,30.37,7.01c10.31,3.76,18.34,9.51,24.09,17.24
		s8.62,16.81,8.62,27.23c0,7.73-2.2,15.9-6.61,24.49c8.81-9.13,13.21-19.82,13.21-32.06s-3.25-22.64-9.75-29.89
		s-14.56-12.62-24.17-16.11s-22.74-6.71-39.39-9.67c-16.65-2.95-25.19-4.48-25.62-4.59c-15.25-3.97-26.83-10.85-34.72-20.62
		s-11.84-21.05-11.84-33.83c0-2.36-0.03-4.35-0.08-5.96c-0.06-1.61-0.03-3.06,0.08-4.35L1900.74,363.92z M1900.74,496.84v43.02
		c3.11-4.08,5.99-6.71,8.62-7.89s6.69-1.66,12.16-1.45c-3.54-4.19-6.1-7.28-7.65-9.26c-1.56-1.99-3.49-4.94-5.8-8.86
		s-4.75-9.1-7.33-15.55V496.84z M2022.22,362.63l-5.32-30.77c-3.54,1.18-7.09,1.77-10.63,1.77c-3.87,0-8.06-0.59-12.57-1.77
		c4.29,2.79,8.06,5.91,11.28,9.34c3.22,3.44,6.61,7.57,10.15,12.41S2021.04,361.45,2022.22,362.63L2022.22,362.63z"/>
	<path class="st0" d="M2094.72,466.87h10.63c5.91,16.97,13.02,31.23,21.35,42.78c8.32,11.55,17.4,20.11,27.23,25.7
		s20.11,8.38,30.85,8.38c13.43,0,24.92-4.19,34.48-12.57s14.34-19.12,14.34-32.22c0-12.24-3.17-21.78-9.51-28.6
		s-13.91-11.6-22.72-14.34s-20.41-5.29-34.8-7.65c-14.39-2.36-24.6-4.56-30.61-6.61c-9.34-3.22-17.29-7.65-23.84-13.29
		s-11.52-12.41-14.9-20.3s-5.08-16.35-5.08-25.38s1.5-16.86,4.51-24.81c3.01-7.95,7.25-14.98,12.73-21.11
		c5.48-6.12,12.16-10.96,20.06-14.5c7.89-3.54,16.67-5.32,26.34-5.32c6.98,0,15.55,0.99,25.7,2.98s17.53,2.98,22.15,2.98
		c5.8,0,11.28-1.29,16.43-3.87h12.24l6.93,66.22h-11.28c-10.53-19.76-21.56-34.83-33.11-45.19s-25.11-15.55-40.68-15.55
		c-7.73,0-14.93,1.8-21.59,5.4c-6.66,3.6-12,8.57-16.03,14.9c-4.03,6.34-6.04,13.32-6.04,20.95c0,10.74,3.65,18.96,10.96,24.65
		c7.3,5.69,18.13,9.99,32.46,12.89c14.34,2.9,27.17,5.37,38.51,7.41c11.33,2.04,20.33,4.67,26.99,7.89
		c12.25,6.02,21.75,14.34,28.52,24.97s10.15,22.66,10.15,36.09s-3.12,24.92-9.35,36.09c-6.23,11.17-14.98,20.11-26.26,26.83
		c-11.28,6.71-23.85,10.07-37.7,10.07c-7.84,0-13.75-0.59-17.72-1.77s-10.79-3.49-20.46-6.93c-9.67-3.44-17.08-5.16-22.23-5.16
		c-8.59,0-15.41,3.28-20.46,9.83h-9.18v-81.85L2094.72,466.87z M2100.04,363.92c-1.83,8.16-2.74,14.77-2.74,19.82
		c0,5.69,0.97,11.41,2.9,17.16s4.78,11.17,8.54,16.27s8,9.26,12.73,12.49c6.34,4.3,13.32,7.33,20.95,9.1
		c7.62,1.77,18.77,3.87,33.43,6.28c14.66,2.42,24.78,4.75,30.37,7.01c10.31,3.76,18.34,9.51,24.09,17.24s8.62,16.81,8.62,27.23
		c0,7.73-2.2,15.9-6.61,24.49c8.81-9.13,13.21-19.82,13.21-32.06s-3.25-22.64-9.75-29.89s-14.55-12.62-24.17-16.11
		c-9.62-3.49-22.75-6.71-39.39-9.67c-16.65-2.95-25.19-4.48-25.62-4.59c-15.25-3.97-26.83-10.85-34.72-20.62
		s-11.84-21.05-11.84-33.83c0-2.36-0.03-4.35-0.08-5.96c-0.06-1.61-0.03-3.06,0.08-4.35V363.92z M2100.04,496.84v43.02
		c3.11-4.08,5.99-6.71,8.62-7.89c2.63-1.18,6.69-1.66,12.16-1.45c-3.54-4.19-6.1-7.28-7.65-9.26c-1.56-1.99-3.49-4.94-5.8-8.86
		s-4.75-9.1-7.33-15.55V496.84z M2221.52,362.63l-5.32-30.77c-3.54,1.18-7.09,1.77-10.63,1.77c-3.87,0-8.06-0.59-12.57-1.77
		c4.29,2.79,8.06,5.91,11.28,9.34c3.22,3.44,6.61,7.57,10.15,12.41S2220.34,361.45,2221.52,362.63z"/>
	<path class="st0" d="M2356.37,436.26v70.89c0,7.84,0.56,13.94,1.69,18.29c1.13,4.35,3.2,7.57,6.2,9.67
		c3.01,2.09,7.33,3.41,12.97,3.95c5.64,0.54,13.34,0.81,23.12,0.81c11.81,0,22.42-1.8,31.82-5.4c9.4-3.6,18.26-8.91,26.58-15.95
		c8.32-7.03,17.42-16.41,27.31-28.11h12.89l-20.14,58.32h-198.33v-8.86c9.56-0.21,16.84-1.05,21.83-2.5s8.54-3.87,10.63-7.25
		c2.09-3.38,3.14-8.19,3.14-14.42V356.36c0-7.52-0.97-13-2.9-16.43c-1.93-3.44-5.21-5.77-9.83-7.01
		c-4.62-1.23-12.24-2.12-22.88-2.66v-8.86h190.44l19.49,51.4h-11.6c-6.23-7.84-13.83-14.96-22.8-21.35s-19.01-11.52-30.13-15.39
		c-11.12-3.87-22.85-5.8-35.21-5.8c-9.77,0-17.13,1.05-22.07,3.14c-4.94,2.09-8.22,5.02-9.83,8.78s-2.42,8.7-2.42,14.82v70.25h32.38
		c28.25,0,42.53-12.94,42.86-38.83h11.28v85.39h-9.99c-1.29-13.1-4.97-22.64-11.04-28.6s-15.33-8.94-27.79-8.94h-37.7
		L2356.37,436.26z M2321.41,357.64v155.8c0,7.84-0.91,13.59-2.74,17.24s-4.57,6.71-8.22,9.18c8.91-0.11,14.69-2.44,17.32-7.01
		c2.63-4.56,3.95-11.95,3.95-22.15V354.74c0-9.13-1.56-15.17-4.67-18.12c-3.12-2.95-8.65-4.54-16.6-4.75
		c3.97,2.15,6.79,5.02,8.46,8.62c1.66,3.6,2.5,9.32,2.5,17.16V357.64z M2429.68,446.74v-31.58c-4.19,7.2-11.82,12.46-22.88,15.79
		c5.9,1.61,10.58,3.54,14.02,5.8S2427.21,442.34,2429.68,446.74L2429.68,446.74z M2455.78,330.25h-29.16
		c8.05,2.69,15.2,5.91,21.43,9.67s12.83,8.27,19.82,13.53l-12.08-23.2L2455.78,330.25z M2462.71,539.86l11.12-28.03
		c-6.34,6.88-12.08,12-17.24,15.39c-5.16,3.38-12.46,7.6-21.91,12.65h28.04L2462.71,539.86z"/>
	<path class="st0" d="M2676.18,330.24v-8.86h86.2v8.86c-7.2,0.22-13.51,1.83-18.93,4.83c-5.42,3.01-9.69,7.39-12.81,13.13
		c-3.12,5.75-4.67,12.65-4.67,20.7l3.06,184.8h-9.99l-164.66-192.37l2.42,129.37c0.21,8.06,0.86,14.85,1.93,20.38
		c1.07,5.53,3.01,10.34,5.8,14.42c2.79,4.08,6.79,7.31,12,9.67s11.95,3.92,20.22,4.67v8.86h-85.55v-8.86
		c11.17-0.86,19.47-3.87,24.89-9.02c5.42-5.16,8.78-11.57,10.07-19.25s1.72-17.32,1.29-28.92l-2.26-131.95
		c-6.12-6.66-12.08-11.73-17.88-15.22c-5.8-3.49-11.82-5.24-18.04-5.24h-1.93v-8.86h66.54l145.16,169.33l-2.26-113.26
		c0-8.7-0.89-16.08-2.66-22.15c-1.77-6.07-4.75-10.98-8.94-14.74c-3.01-3.01-7.33-5.5-12.97-7.49s-10.98-2.92-16.03-2.82
		L2676.18,330.24z M2707.27,514.71l-145.16-169.33c-3.01-3.87-6.58-7.36-10.71-10.47c-4.14-3.11-9.96-4.67-17.48-4.67h-7.25
		c6.01,2.15,10.69,4.75,14.02,7.81s8,8.19,14.02,15.39l165.46,192.69c-0.11-3.11-0.24-6.15-0.4-9.1s-0.51-5.16-1.05-6.61
		s-1.56-3.25-3.06-5.4c-1.51-2.15-4.3-5.58-8.38-10.31L2707.27,514.71z M2531.01,539.84H2565c-4.73-3.65-8.08-7.03-10.07-10.15
		c-1.99-3.11-3.68-7.46-5.08-13.05c-1.4,5.05-3.54,9.42-6.44,13.13s-7.04,7.06-12.41,10.07L2531.01,539.84z M2732.56,330.23h-35.28
		c5.37,1.83,9.75,4.35,13.13,7.57s6.26,7.63,8.62,13.21C2721.5,341.45,2726.01,334.52,2732.56,330.23L2732.56,330.23z"/>
	<path class="st0" d="M2979.72,318.32h13.21v71.37h-9.99c-5.05-10.53-10.5-19.79-16.35-27.79c-5.86-8-12.06-14.66-18.61-19.98
		s-13.43-9.29-20.62-11.92c-7.2-2.63-14.93-3.95-23.2-3.95c-11.17,0-21.32,2.5-30.45,7.49s-16.92,12.14-23.36,21.43
		c-6.44,9.29-11.47,20.6-15.06,33.92c-3.6,13.32-5.4,27.55-5.4,42.69c0,21.16,3.54,39.96,10.63,56.39
		c7.09,16.43,17,29.24,29.73,38.43c12.73,9.18,27.2,13.78,43.42,13.78c9.99,0,19.63-1.64,28.92-4.91
		c9.29-3.28,18.18-8.27,26.66-14.98s16.38-15.06,23.68-25.05l9.51,5.32c-12.14,17.51-26.69,30.69-43.66,39.55
		c-16.97,8.86-36.52,13.29-58.64,13.29c-17.19,0-33.03-3.01-47.53-9.02s-27.01-14.42-37.54-25.21
		c-10.53-10.79-18.61-23.33-24.25-37.62c-5.64-14.28-8.46-29.38-8.46-45.27c0-17.18,3.06-33.16,9.18-47.93
		c6.12-14.77,14.58-27.47,25.38-38.1c10.79-10.63,23.31-18.82,37.54-24.57s29.35-8.62,45.35-8.62c6.01,0,11.62,0.46,16.84,1.37
		c5.21,0.91,11.41,2.34,18.61,4.27c7.2,1.93,12.06,3.2,14.58,3.79c2.52,0.59,5.45,0.89,8.78,0.89c8.48,0,15.52-3.01,21.11-9.02
		L2979.72,318.32z M2867.1,325.41c-16.65,6.34-30.29,13.91-40.92,22.72c-6.12,5.16-11.55,10.96-16.27,17.4
		c-4.73,6.44-8.73,13.32-12,20.62c-3.28,7.31-5.8,15.17-7.57,23.6c-1.77,8.43-2.66,16.67-2.66,24.73c0,19.33,3.97,37.19,11.92,53.57
		s19.82,29.97,35.61,40.76s34.58,17.43,56.39,19.9c-14.29-3.76-27.31-9.29-39.07-16.59c-11.76-7.3-21.75-16.06-29.97-26.26
		s-14.39-21.29-18.53-33.27c-4.13-11.98-6.2-24.46-6.2-37.46c0-10.74,1.77-22.02,5.32-33.83c3.54-11.81,8.48-22.29,14.82-31.42
		c7.3-10.42,14.74-18.79,22.31-25.13s16.51-12.78,26.82-19.33L2867.1,325.41z M2973.44,358.92l-0.97-27.39
		c-5.05,2.25-10.37,3.38-15.95,3.38c-2.69,0-5.21-0.21-7.57-0.64c5.48,4.19,10.04,8.25,13.7,12.16
		C2966.3,350.35,2969.9,354.51,2973.44,358.92z"/>
	<path class="st0" d="M3091.85,436.26v70.89c0,7.84,0.56,13.94,1.69,18.29c1.13,4.35,3.2,7.57,6.2,9.67
		c3.01,2.09,7.33,3.41,12.97,3.95c5.64,0.54,13.34,0.81,23.12,0.81c11.81,0,22.42-1.8,31.82-5.4c9.4-3.6,18.26-8.91,26.58-15.95
		c8.32-7.03,17.42-16.41,27.31-28.11h12.89l-20.14,58.32h-198.33v-8.86c9.56-0.21,16.84-1.05,21.83-2.5s8.54-3.87,10.63-7.25
		c2.09-3.38,3.14-8.19,3.14-14.42V356.36c0-7.52-0.97-13-2.9-16.43c-1.93-3.44-5.21-5.77-9.83-7.01
		c-4.62-1.23-12.24-2.12-22.88-2.66v-8.86h190.44l19.49,51.4h-11.6c-6.23-7.84-13.83-14.96-22.8-21.35s-19.01-11.52-30.13-15.39
		c-11.12-3.87-22.85-5.8-35.21-5.8c-9.77,0-17.13,1.05-22.07,3.14c-4.94,2.09-8.22,5.02-9.83,8.78s-2.42,8.7-2.42,14.82v70.25h32.38
		c28.25,0,42.53-12.94,42.86-38.83h11.28v85.39h-9.99c-1.29-13.1-4.97-22.64-11.04-28.6s-15.33-8.94-27.79-8.94h-37.7
		L3091.85,436.26z M3056.89,357.64v155.8c0,7.84-0.91,13.59-2.74,17.24s-4.57,6.71-8.22,9.18c8.91-0.11,14.69-2.44,17.32-7.01
		c2.63-4.56,3.95-11.95,3.95-22.15V354.74c0-9.13-1.56-15.17-4.67-18.12c-3.12-2.95-8.65-4.54-16.6-4.75
		c3.97,2.15,6.79,5.02,8.46,8.62c1.66,3.6,2.5,9.32,2.5,17.16V357.64z M3165.16,446.74v-31.58c-4.19,7.2-11.82,12.46-22.88,15.79
		c5.9,1.61,10.58,3.54,14.02,5.8S3162.69,442.34,3165.16,446.74L3165.16,446.74z M3191.26,330.25h-29.16
		c8.05,2.69,15.2,5.91,21.43,9.67s12.83,8.27,19.82,13.53l-12.08-23.2L3191.26,330.25z M3198.19,539.86l11.12-28.03
		c-6.34,6.88-12.08,12-17.24,15.39c-5.16,3.38-12.46,7.6-21.91,12.65h28.04L3198.19,539.86z"/>
</g>
<path class="st1" d="M578.19,13.2c16.56,24.32,19.86,50.72,6.28,76.52c-9.43,17.92-7.44,37.97-15.33,55.72
	c-1.34,3.03-1.62,6.71-3.48,9.3c-8.57,11.91-5.93,22.98-1.58,36.23c7.77,23.67-3.01,56.58-31.36,74.1
	c-3.66,2.26-9.03,4.78-9.77,8.05c-1.31,5.73,0.1,12.17,0.95,18.23c0.2,1.4,2.73,2.46,2.87,2.58c6.58-3.72,11.95-7.63,17.94-9.95
	c10.16-3.95,15.33-12.29,19.36-21.16c6.77-14.9,12.19-30.4,18.78-45.38c1.8-4.1,6.05-7.39,10.96-3.62
	c5.43,4.17,8.07,1.88,11.52-2.82c2.44-3.33,6.62-5.53,10.33-7.74c4.25-2.53,9.06-4.16,13.22-6.82c6.24-4,12.33-7.83,20.88-5.23
	c0.53,3.52,1.09,7.3,1.78,11.92c3.72-0.86,7.43-1.72,11.86-2.75c3.68,8.33,9.73,6.62,17.11,3.32c5.86-2.62,12.6-3.24,21.76-5.41
	c-1.47,7.81-2.57,13.63-3.78,20.06c1.84,1.42,8.28-3.36,8.61,4.01c1.66-0.32,3.32-0.81,4.99-0.93c5.29-0.36,10.58-0.57,15.87-0.84
	c-0.7,5.04-1.41,10.09-2.07,15.13c-0.06,0.47,0.2,0.99,0.55,2.48c8.99-2.65,18.02-5.3,29.2-8.59c-2.05,3.1-2.38,3.91-2.96,4.44
	c-12.83,11.56-12.35,17.24,0.51,27.84c5.46,4.5,9.13,11.18,14.11,17.51c-9.77,2.44-17.81,3.1-24.45,6.5
	c-6.51,3.33-11.6,9.44-17.29,14.31c5.66,6.35,13.17,5.13,20.33,4.25c10.08-1.24,10.04-1.51,9.16,9.59c7.4,0.47,16.2-0.84,17.32,10.4
	c0.08,0.78,3.81,1.13,5.81,1.78c6.47,2.09,12.92,4.22,19.37,6.33c0.03,0.93,0.06,1.85,0.1,2.78c-7.65,4.68-15.29,9.36-23.44,14.34
	c6.7,3.79,13.72,6.16,7.89,15.31c-0.82,1.29,2.59,5.96,4.81,8.35c3.79,4.09,8.19,7.61,13.9,12.79c-7.98,1.44-12.78,2.31-17.57,3.18
	c-0.56,0.84-1.12,1.67-1.68,2.51c3.3,3.24,6.98,6.19,9.75,9.84c1.42,1.88,2.37,5.59,1.45,7.41c-1.37,2.7-4.6,4.46-7.93,7.4
	c4.24,3.32,8.33,6.51,12.93,10.12c-1.61,2.13-3.18,4.22-5.9,7.83c4.58,3.67,9.09,7.56,13.89,11.06c4.81,3.5,9.91,6.61,17.46,11.59
	c-7.65,2.18-13.12,4.55-18.77,5.12c-6.3,0.64-12.76-0.61-19.14-0.55c-3.83,0.04-7.67,0.93-11.48,1.56
	c-3.26,0.54-6.57,2.04-9.73,1.76c-6.96-0.61-14.32-4.89-19.41,4.17c-0.41,0.72-5.09-0.66-7.63-1.52c-3.14-1.07-6.05-2.79-9.16-3.94
	c-12.82-4.75-14.42-3.68-15.09,12.5c-6.87-4.53-13.05-7.71-18.13-12.16c-8.98-7.88-16.85-17.03-25.99-24.69
	c-7.06-5.91-15.89-8.16-25.15-5.28c-5.89,1.83-8.36,6.39-4.27,11.27c6.01,7.18,13.1,13.48,19.88,20.01
	c3.2,3.08,6.55,6.05,10.13,8.67c6.8,4.97,3.23,7.6-1.53,9.71c3.75,4.53,7.5,9.06,11.25,13.59c-1.59,1.29-3.19,2.58-5.3,4.29
	c1.89,3.58,4.07,7.72,6.39,12.12c-11.99,7.96,2.61,18.72-2.94,27.8c-5.87-1.54-11.62-3.04-18.42-4.82c0.14,3.2-0.36,5.32,0.4,6.78
	c2.28,4.37,1.37,6.25-3.46,7.82c-2.11,0.69-4.23,4.44-4.5,7.01c-0.65,5.94-0.18,11.99-0.16,18.61c-6.28-1.9-11.36-3.44-14.24-4.32
	c-3.48,3.9-5.74,6.21-7.7,8.75c-0.72,0.94-0.69,2.44-1.02,3.68c-1.15,4.39-2.3,8.79-3.49,13.35c-7.93-3.13-13.88,1.97-17.84,15.28
	c-0.53,0.2-1.1,0.63-1.59,0.55c-13.24-2.2-13.84-1.88-18.29,11.25c-2.99,8.84-5.82,17.73-9.5,28.98c-3.43-5.33-5.26-8.95-7.8-11.95
	c-5.17-6.11-9.71-14.78-16.36-17.1c-9.21-3.22-18.55-4.13-23.56-14.08c-0.49-0.98-4.4-0.05-6.67-0.37c-2.82-0.39-7.34-0.34-8.06-1.9
	c-2.48-5.37-4.76-10.26-11.09-11.95c-0.69-0.18-0.86-2.29-1.49-4.18c-4.82,3.62-9.05,6.79-15.75,11.82
	c-0.88-7.31-1.5-12.32-2.09-17.33c-0.86-7.37-2.9-13.1-12.7-8.24c-0.35-3.99-0.66-7.42-1.05-11.8c-5.67,3.37-10.54,6.28-15.42,9.18
	c-1.31-0.01-2.62-0.02-3.93-0.04c0.04-3.96,0.03-7.92,0.14-11.87c0.18-6.06,0.15-11.48-5.39-16.24c-2.13-1.83-0.57-7.95-0.75-14.35
	c-2.83,1.94-6.13,3.21-7.95,5.6c-8.66,11.46-18,22.13-31.23,28.39c-4.7,2.22-9.93,4.09-15.04,4.47c-4.46,0.33-5.5,1.68-6.33,5.74
	c-2.97,14.57-7.31,28.82-16.45,40.81c-11.71,15.36-25.24,28.46-45.74,31.08c-0.56,0.07-1.18,0.47-1.66,0.32
	c-13.96-4.11-18.64,6.34-24.23,15.39c-9.79,15.84-22.8,27.09-41.44,31.86c-3.84,0.98-6.79,7.37-9.17,11.79
	c-13.16,24.47-30.3,43.48-60.06,45.88c-12.2,33.63-27.87,63.7-67.41,68.21c-9.73,11.66-17.65,24.32-28.5,33.52
	c-23.61,20.02-59.89,15-68.86-22.53c-2.72-11.36-1.22-22.24,0.16-33.36c0.27-2.15,0.21-5.51-1.09-6.5
	C0.96,779.81-1.86,758.94,0.9,737.14c2.53-19.96,11.5-37.53,28.31-49.59c6.17-4.43,13.76-7.11,21.02-9.71
	c6.73-2.41,9.43-8.86,4.46-13.96c-20.34-20.85-17.8-44.58-9.35-69.31c5.37-15.73,16.43-26.21,31.33-34.2
	c-11.77-9.14-17.09-21.27-18.53-34.92c-1.85-17.52,0.86-34.12,10.27-49.71c11.62-19.24,26.58-32.26,50.18-32.83
	c1.41-0.03,3.74-2.63,3.99-4.29c1.9-12.52,4.73-24.58,11.92-35.4c1.14-1.72,0.24-6.51-1.42-8.12
	c-15.39-14.96-17.88-33.29-14.9-53.28c0.24-1.63,0.28-3.3,0.44-5.23c-2.21,1.73-4.08,3.19-8.22,6.42
	c-0.03-7.22-0.22-12.35-0.04-17.46c0.41-11.45,1.43-22.85-1.36-34.27c-0.62-2.56,1.93-6.11,3.5-8.94c4.07-7.31,3.36-9.85-6.52-14.04
	c7.63-7.44,14.72-14.1,21.49-21.07c3.48-3.58,7.32-7.31,9.23-11.74c1.29-3-0.51-7.32-0.92-11.05c-3.83,0.96-8.29,0.99-11.31,3.1
	c-3.77,2.63-5.87,7.64-9.62,10.34c-2.87,2.07-5.4,9.6-10.94,2.86c-0.19-0.23-1.28-0.1-1.62,0.21c-9.94,9.26-21.41-0.3-31.92,2.47
	c-0.73,0.19-3.07-2.54-3.23-4.07c-0.25-2.34,0.75-4.81,1.32-7.7c-7.72-3.41-15.23-6.73-23.49-10.37c0.57-1.15,1.98-4.02,3.75-7.59
	c-4.33-2.17-9.02-3.83-12.79-6.69c-1.95-1.48-2.29-5.09-2-8.37c-3.44-2.27-6.88-4.54-10.43-6.88c2.21-17.35-15.07-13.62-22.87-21.32
	c0.71-0.97,1.49-3.2,2.97-3.87c8.39-3.79,14.95-7.54,18.35-18.11c2.98-9.28,12.36-16.51,19.33-25.16c-0.71-1.59-1.93-4.35-3.88-8.75
	c9.61,1.06,17.25-1.24,21.5-11.07c0.66,0.86,1.33,1.71,1.99,2.57c-1.05-3.3-2.1-6.59-3.13-9.83c0.4-0.54,0.66-1.28,1.06-1.37
	c9.43-2.04,19.15-6.41,28.24-5.36c11.08,1.28,24,1.95,31.19,13.76c0.97,1.59,2.63,3.34,4.3,3.79c4.81,1.3,11.03,5.47,13.84-1.36
	c1.06-2.58-2.63-8.37-5.6-11.13C122.6,86.96,113.47,80.4,105.11,73c-2.29-2.03-6.55-4.31-2.4-9.39c1.2-1.47-2.17-6.75-3.56-10.24
	c-1.13-2.83-5.96-5.56,0.01-8.49c0.48-0.24,0.37-2.09,0.21-3.15c-1.4-9.15-3-18.26-4.28-27.43c-0.52-3.77-0.39-7.63-0.55-11.45
	c0.63-0.95,1.25-1.9,1.88-2.85c3.61,3.07,7.95,5.61,10.66,9.33c4.05,5.56,7.98,7.28,13.48,2.31c2.23,2.3,4.09,4.21,6.16,6.34
	c2.15-2.35,3.95-4.32,4.69-5.13c4.82,1.58,8.45,3.62,12,3.5c1.42-0.05,2.68-4.87,3.81-7.11c7.98,3.36,16.04,6.76,24.44,10.3
	c2.53-4.91,4.84-9.4,8.01-15.56c3.1,5.83,5.62,13.56,7.4,13.39c9.05-0.84,5.76,6.95,8.5,10.22c5.31-2.95,6.43-2.31,7.29,3.01
	c0.7,4.3,2.18,8.48,3.31,12.71c1.33,0.05,2.66,0.1,3.98,0.15c3.3-8.84,6.6-17.68,10.17-27.22c8.9-2.8,15.7,19.19,28.34,2.64
	c-0.11,6.72-0.19,11.6-0.31,18.61c2.53-2.76,3.26-3.55,3.98-4.34c16.69-18.45,39.66-29.12,65.22-17.87
	c16.74,7.37,33.03,15.75,49.89,23.04c11.93,5.16,19.47,16.38,22.93,28.75c-5.91-7.18-11.33-15.42-18.39-21.89
	c-7.42-6.8-16.65-11.25-28.09-11.78c11.86,14.7,15.94,30.31,12.44,47.9c-2.2,11.08-9.5,20.57-18.68,21.02
	c-10.27,0.5-20.35-1.81-25.18-12.61c-2.71-6.08-5.64-12.55-6.12-19.02c-0.78-10.52-0.46-21.72,6.9-30.24
	c4.12-4.77,10.34-7.72,15.6-11.48c-16.94-13.9-42.03-12.77-58.19-0.27c-10.75,8.31-11.55,9.42-5.37,20.46
	c2.98-1.28,5.92-2.53,10.24-4.38c0.11,7.64-1.93,15.24,0.91,19.79c2.6,4.16,1.86,14.7,13.14,10.58c-0.85,4.23-1.35,7.18-2.05,10.09
	c-0.69,2.85-1.59,5.64-2.41,8.53c33.34,1.42,47.79,16.11,52.19,53.26c26.52-17.34,51.56-16.66,74.7,7.1
	c2.32-9.87,5.89-18.7,6.21-27.65c0.86-23.89,0.19-47.83,0.41-71.74c0.11-11.89,0.49-23.81,1.57-35.65c0.21-2.25,4.31-5.9,6.59-5.89
	c9.86,0.06,18.57,3.19,21.02,14.84c4.62,22,2.67,44.02,1.19,65.95c-0.92,13.72-4.04,27.37-7.06,40.85c-1.59,7.06-5.1,13.7-7.47,19.8
	c9.12,0.48,17.61,1.14,26.11,1.2c1.75,0.01,3.47-2.32,5.29-3.41c7.24-4.32,14.06-10.73,21.88-12.43
	c16.58-3.59,31.75,3.02,45.79,11.56c5.81,3.54,11.05,8.01,16.52,12.04c8.69-11.95,16.02-34.48,15.48-45.57
	c-6.49,2.12-13.17,5.77-20.07,6.26c-16.41,1.15-29.85-5.79-42.01-16.91c-11.77-10.77-19.5-22.66-19.33-39.06
	C484.32,49.7,499.29,35,517.62,36.8c23.76,2.34,39.37,16.75,49.91,36.95c4.03,7.73,5.98,16.55,9.34,26.21
	c2.58-5.56,5.11-9.93,6.69-14.62c7.6-22.5,9.59-44.69-4.54-65.72c-2.25-3.35-4.37-6.78-6.56-10.18c1.9,1.25,3.8,2.51,5.69,3.76
	L578.19,13.2z M100.15,162.43l0.08,0.3c1.92-1.33,3.84-2.66,6.97-4.83c-14.13-9.32-27.51-18.15-41.62-27.46
	c1.94-0.28,3.33-0.95,3.99-0.51c13.28,8.72,26.41,17.68,39.75,26.32c2.73,1.77,6.12,3.35,9.26,3.46c6.66,0.24,13.36-0.6,20.05-0.89
	c11.86-0.53,23.73-0.98,34-1.39c-25.27-14.31-51.22-29.01-77.17-43.72c0.42-0.74,0.83-1.47,1.25-2.21
	c10.41,5.91,20.71,12.04,31.27,17.67c13.81,7.36,27.49,15.12,41.85,21.25c17.1,7.3,35.5,7.04,54.93,6.67
	c-2.47-5.7-4.13-10.45-6.52-14.81c-5.37-9.83-10.77-18.79-23.95-20.97c-7.52-1.25-15.1-6.53-21.07-11.78
	c-14.64-12.87-27.15-28.26-45.29-37.02c5.08,1.37,10.73,2.24,14.56,5.36c10.56,8.59,20.19,18.31,30.52,27.2
	c8.07,6.94,16.71,13.13,28.92,14.3c-1.05-2.03-1.36-3.16-2.07-3.92c-15.16-16.21-30.62-32.15-45.43-48.67
	c-6.55-7.31-13.84-10.86-23.61-10.48c-4.59,0.18-9.23-1.12-13.85-1.76c0.08-0.56,0.16-1.12,0.24-1.69
	c7.53,0.64,15.05,1.27,25.12,2.12c-9.93-10.41-18.02-18.89-26.11-27.37c2.64-0.09,4.11,1.03,5.38,2.34
	c4.43,4.56,8.06,11.56,13.38,13.21c6.85,2.13,8.07,7.24,11.59,11.45c5.12,6.11,11.23,11.39,16.92,17.02
	c0.38-0.43,0.76-0.86,1.14-1.29c-3.33-11.84-6.67-23.68-10-35.51c0.75-0.21,1.5-0.42,2.25-0.62c4.34,13.67,6.85,28.34,13.54,40.73
	c6.64,12.29,17.52,22.3,26.53,33.31c0.7-0.44,1.4-0.88,2.1-1.32c-8.15-27.12-17.54-53.99-18.55-82.5
	c9.29,42.81,17.73,85.81,45.65,122.58c7.37-15.21,8.41-30.72,7.24-46.59c-1.17-15.98-2.3-31.97-3.44-47.95
	c0.36-0.07,0.73-0.14,1.09-0.2c1.49,8.93,2.98,17.86,4.84,29c10.62-7.59,20.47-14.63,30.32-21.67c0.45,0.65,0.9,1.29,1.34,1.94
	c-10.18,7.42-20.36,14.83-31.13,22.68c0.43,8.34,0.92,17.93,1.56,30.23c13.89-9,25.91-16.79,37.67-24.4
	c-0.61,1.34-1.52,3.32-2.43,5.3c0.48,0.26,0.95,0.51,1.43,0.77c2.08-3.59,4.15-7.17,6.25-10.78c-12.15-6.58-13.7-17.34-11.86-29.09
	c-9.83-0.19-14.57-5.13-15.41-15.23c-6.76,2.95-10.05-0.32-11.54-6.56c-0.24-0.99-0.03-2.69-0.53-2.9
	c-5.79-2.48-11.67-4.75-17.16-6.92c-2.82,5.69-5.65,11.97-9,17.97c-3.36,6.02-8.12,5.58-12.27,1.07
	c-4.17-4.53-5.27-10.87-11.13-15.04c-5.51-3.92-8.39-11.52-12.75-17.97c-2.75,4.16-5.08,7.7-8.02,12.16
	c-7.4-2.48-14.76-4.94-21.94-7.34c-1.48,7.29-9.08,9.9-16.31,3.71c-4.99,11.25-10.5-1.3-16.61-0.05c-4.88,1-11.17-4.85-17.5-7.99
	c8.5,15.29,1.41,33.98,11.56,48.97c0.81,1.19,0.76,3.42,0.32,4.93c-1.28,4.38,1.01,6.33,4.22,8.77c8.9,6.76,17.62,13.81,25.96,21.26
	c4.54,4.06,6.13,9.08,1.64,14.89c-5.12,6.62-18.75,7.1-25.39,1.07c-4.32-3.93-9.26-8.96-14.49-9.76
	c-10.9-1.65-22.17-0.82-33.36-1.01c0.49,14.73-10.16,17.69-19.07,21.33c-0.5,3.31,0.12,7.53-1.58,8.91
	c-5.23,4.27-9.06,8.6-12.53,14.92c-5.14,9.38-14.56,16.42-22.43,24.73c3.35,1.63,7.36,2.67,10.1,5.12
	c7.08,6.33,7.92,17.05,15.56,23.21c1.26,1.01,1.6,3.55,2.9,4.06c7.52,3,11.45,8.21,10.84,16.32c14.82,2.95,19.42,7.9,19.25,20.51
	c3.09-0.43,6.36-1.77,9.19-1.14c15.34,3.45,28.27-0.39,39.15-11.65c1.33-1.38,2.77-3.08,4.48-3.6c4.11-1.24,9.14-3.58,12.38-2.19
	c2.46,1.06,4.7,7.93,3.58,10.91c-2.47,6.54-6.49,12.82-11.08,18.17c-4.96,5.78-11.3,10.39-17.31,15.76
	c10.27,4.74,8.14,10.64,2.27,19.66c0.04,16.5,0.07,30.49,0.1,45.82c10.04-15.22,19.43-29.45,30.08-45.58
	c-7.91,0.62-13.28,1.05-18.66,1.47c4.39-2.35,9.05-3.26,13.74-3.39c12.56-0.35,17.65-8.59,11.92-19.55
	c-1.88-3.6-3.51-7.33-5.2-10.88c-1.91,0.79-3.77,1.55-5.62,2.31c6.05-4.53,5.15-10.17,4.74-16.66
	c-1.51-24.11,5.54-45.47,24.68-61.11c8.18-6.68,18.12-11.21,27.26-16.71c-11.6,3.08-23.87,6.05-33.74,12.63
	c-16.55,11.02-31.62,24.29-47.22,36.72c-7.2,5.74-14.2,11.74-21.28,17.63c25.66-23.64,48.25-51.2,81.33-66.03
	c-21.38-0.52-42.17,0.2-62.95,1.07c-1.36,0.06-2.99,1.03-3.95,2.07c-12.82,13.88-25.54,27.85-38.28,41.8
	c-0.51-0.44-1.03-0.88-1.54-1.33c12-13.57,24-27.15,36.62-41.42c-3.21-0.78-5.05-1.23-6.89-1.67L100.15,162.43z M571.94,596.17
	c-2.06,0.37-4.13,0.74-6.19,1.11c-3.41-19.02-6.81-38.04-10.22-57.07c-1.17-0.12-2.33-0.25-3.5-0.37
	c-4.96,11.9-9.92,23.8-14.87,35.7c1.26-8.62,3.96-16.69,7.12-24.57c2.89-7.21,9.01-14.28,8.88-21.31
	c-0.24-13.3-3.95-26.52-6.4-40.88c-21.41,19.5-25.18,48.24-42.1,68.9c6.86-15.38,13.4-30.75,20.56-45.83
	c3.34-7.04,6.56-15.07,12.2-19.86c6.99-5.94,8.37-11.96,7.2-20.04c-4.22-29.14-8.28-58.31-12.6-88.96
	c-9.81,52.43-38.86,95.33-59.35,141.93c-0.17-2.03-0.12-4.04,0.63-5.73c14.57-32.54,29.68-64.86,43.73-97.62
	c14.26-33.26,14.12-68.07,9.07-104.81c-11.45,7.15-22.45,13.05-32.32,20.46c-8.78,6.59-16.46,13.82-16.12,27.35
	c0.21,8.19-4.23,17.46-8.99,24.64c-10.74,16.17-23.56,30.95-34.42,47.04c-7.61,11.27-13.38,23.77-19.98,35.72
	c4.12-11.63,8.22-23.58,14.92-33.83c10.92-16.71,24.13-31.91,35.21-48.52c6.55-9.83,9.97-21.38,9.61-35.02
	c-5.49,5.67-10.01,10.18-14.35,14.86c-11.38,12.25-22.94,24.35-33.94,36.93c-11.23,12.86-21.98,26.16-32.68,39.47
	c-1.57,1.96-2.38,5.06-2.4,7.63c-0.07,9.47,0.61,18.94,0.46,28.4c-0.08,4.62-1.38,9.21-2.13,13.82c-0.28-0.09-0.56-0.17-0.84-0.26
	c0-13.73,0.02-27.46,0.03-41.19c-0.75-0.05-1.5-0.1-2.24-0.14c-13.43,15.36-26.85,30.73-40.28,46.09c-0.64-0.57-1.27-1.14-1.91-1.71
	c12.01-13.81,24.02-27.63,36.04-41.44c-5.78,0.99-10.35,3.02-15.04,4.67c-4.63,1.62-9.39,2.87-14.93,4.53
	c13.07-6.69,26.41-11.22,36.78-19.47c10.19-8.11,17.37-20,26.95-31.52c-22.17,8.33-42.15,15.84-62.13,23.35
	c-0.26-0.72-0.51-1.44-0.77-2.16c14.59-5.94,29.43-11.36,43.71-17.98c10.93-5.07,21.44-11.23,31.56-17.79
	c4.03-2.62,6.39-7.74,9.73-11.52c8.09-9.15,16.31-18.17,25.67-28.57c-22.01,8.49-42.26,16.23-62.45,24.11
	c-27.84,10.87-56,17.85-62.7,15.64c67.03-16.65,130.29-41.94,184.52-89.42c-19.55-0.04-38.67-1.02-57.66,0.16
	c-19.56,1.22-39.16,3.63-58.43,7.21c-18.73,3.47-37.06,9.07-55.57,13.73c-0.2-0.8-0.4-1.6-0.6-2.41
	c20.8-5.37,41.6-10.75,64.78-16.74c-12.42-14.59-23.92-28.1-34.69-40.75c14.04,7.76,23.45,21.56,32.96,35.35
	c1.52,2.21,4.55,5.26,6.49,5c13.63-1.85,27.16-4.47,40.95-6.88c-8.77-21.12-23.41-37.07-38.73-52.55
	c18.76,13.97,34.01,30.83,42.94,51.84c19.65,0.35,38.75,0.7,57.86,1.04l1.06-1.7c-8.69-5.73-17.37-11.46-26.06-17.19
	c-8.66-5.72-18.34-10.38-25.72-17.44c-7.67-7.34-13.12-17.01-17.38-22.74c-18.33-3.69-33.94-6.84-49.94-10.06
	c3.25,8.14,0.92,12.92-8.45,13.2c-1.08,0.03-2.88,1.11-3.07,1.98c-1.63,7.41-8,6.45-12.94,7.04c-4.88,0.58-9.92-0.27-14.98-0.5
	c2.78,16.97-5.05,25.82-21.7,25.03c6.02,12.97,4.54,15.9-7.49,19.54c-5.2,11.59-9.55,21.28-14.12,31.47c3.12-0.08,5.07,0,6.99-0.21
	c11.76-1.33,18.91,9.15,29.27,11.69c1.32,0.32,2.56,7.05,1.48,9.92c-3.65,9.67-12.57,12.83-22.3,14.73
	c6.42,12.51-5.19,10.2-9.91,13.36c1.14,13.27-13.34,10.77-18.79,18.9c3.33,1.36,6.2,2.82,9.24,3.71
	c12.73,3.75,13.65,6.56,4.83,15.42c-0.29,0.29-0.1,1.06-0.13,1.57c2.62,1.2,5.23,2.4,7.67,3.52c-1.59,4.24-2.35,7.94-4.26,10.9
	c-2.05,3.18-5.17,5.67-8.07,8.73c5.56,2.84,12.22-0.09,14.47,9.82c1.81,7.96,0.35,11.45-5.61,15.35c9.82,3.97,10.71,6.81,5.87,15.28
	c-0.92,1.62-2.54,4.08-1.97,5.13c6.24,11.47-1.32,18.66-7.69,26.28c-1.23,1.48-2.38,3.03-3.56,4.55c5.08-0.09,8.94-1.71,12.95-2.7
	c6.45-1.6,13.04-2.68,19.51-4.2c3.86-0.9,7.59-2.31,11.43-3.33c3.95-1.05,8.74-3.74,11.76-2.44c5.6,2.41,7.99-0.72,11.82-3.06
	c6.02-3.68,12.5-8.04,19.14-8.75c4.08-0.44,5.74-1.4,7.54-4.14c9.28-14.06,18.42-28.21,27.87-42.15
	c9.17-13.52,24.51-14.52,31.31-2.12c4.5,8.22,5.83,17.32,1.75,25.77c-4.93,10.19-11.28,19.7-17.26,29.92c5,5.77,5,5.93-0.15,16.29
	c2.47,13.48,4.66,25.43,6.87,37.52c7.39-2.1,16.64-9.06,19.19,5.86c0.04,0.24,0.31,0.58,0.52,0.62c10.38,2.14,9.93,11.5,12.5,19.75
	c7.2-5.73,12.83-4.16,19.06,1.72c5.36,5.06,7.28,17.09,19.52,11.67c0.81-0.36,3.73,5.09,6.22,7.18c3.45,2.89,7.33,5.3,11.21,7.61
	c2.1,1.25,4.96,1.39,6.79,2.87c6.28,5.11,12.26,10.6,18.33,15.93c1.8-5.5,2.57-12.06,5.91-16.81c3.23-4.61,8.65-8.76,13.96-10.5
	c4.48-1.47,7.06-2.49,8.45-7.21c1.67-5.67,4.02-11.15,12.1-10.16c1.47,0.18,4.46-3.45,5-5.73c3-12.67,9.56-17.59,22.12-15.91
	c0.41,0.05,0.89-0.49,1.44-0.81c0.11-1.03,0.6-2.25,0.29-3.22c-3.78-11.7,8.17-17.64,10.08-27.29c0.22-1.12,3.21-2.3,4.96-2.39
	c4.02-0.22,8.07,0.22,12.92,0.43c-1.05-7.67-7.41-15.31-0.99-23.08c0.2-0.25-0.3-1.04-0.41-1.59c-1-4.85-1.99-9.7-3.49-16.99
	c-7.93-5.91-8.47-7.96-2.02-15.12c-8.53-7.22-17.36-14.12-25.49-21.77c-4.87-4.58-9.15-10.42-6.54-17.79
	c2.71-7.63,9.14-8.4,16.5-8.54c12.98-0.25,21.64,6.77,30.15,15.07c8.31,8.09,17.11,15.67,27.39,25.02
	c-0.31-13.31,6.92-13.72,14.25-12.17c6.42,1.36,12.51,4.23,18.75,6.44c-0.11-0.75-0.22-1.5-0.33-2.26
	c21.82-2.99,43.68-5.67,68.2-4.51c-12.03-9.18-26.09-13.53-24.06-30.11c0.04-0.34-0.69-0.87-1.15-1.16
	c-7.73-4.89-8.68-10.77-1.13-18.14c-10.02-0.35-8.09-6.42-9.25-12.29c-1.54-7.84,3.12-10.26,7.73-13.37
	c-5.24-6.93-19.81-8.52-10.8-21.62c-9-7.45-8.93-10.77,0.24-17.94c2.38-1.86,4.9-3.53,6.27-4.51c-6.32-2.71-12.54-5.2-18.59-8.05
	c-2.16-1.02-3.76-3.15-5.87-4.34c-2.13-1.2-5.78-1.22-6.66-2.87c-3.76-7.08-10.33-6.42-16.65-7.66
	c-12.68-2.48-19.5-15.22-11.53-21.58c8.46-6.75,14.45-17.68,27.11-18.56c1.34-0.09,2.56-1.8,2.19-1.52
	c-5.42-7.39-10.53-14.41-15.75-21.35c-0.65-0.86-1.79-1.68-2.82-1.86c-13.66-2.43-14.46-3.19-16.15-16.1
	c-16.27,2.34-24.81-3.27-27.23-18.01c-1.12,0.19-2.26,0.26-3.34,0.57c-9.24,2.64-18.51,8.79-27.61-0.41
	c-0.46-0.46-1.69-0.51-2.42-0.29c-8.94,2.7-12.15-2.02-12.44-10.18c-2.75,1.5-5.3,2.33-7.09,3.98c-6.77,6.23-18.12,5.25-22.76,14.79
	c-3.79,7.79-9.34,11.07-18.09,5.05c-2.01,4.1-3.89,7.49-5.36,11.05c-4.67,11.31-8.7,22.92-13.91,33.97
	c-4.79,10.17-12.75,17.32-23.68,21.32c-4.94,1.81-12.33,2.85-10.68,11.4c16.46-4.05,32.64-7.83,48.67-12.15
	c3.24-0.87,7.01-3.15,8.7-5.91c8.55-13.94,16.67-28.15,24.59-42.47c4.55-8.22,8.41-16.82,12.58-25.25c0.73,0.36,1.47,0.72,2.2,1.08
	c-10.98,23.25-21.96,46.5-33,69.87c13.89-3.34,29.18-6.97,44.42-10.79c0.93-0.23,1.78-1.79,2.21-2.9c3.12-8,5.38-16.45,9.37-23.98
	c4.63-8.75,10.76-16.71,16.23-25.01c0.82,0.55,1.64,1.1,2.47,1.65c-12.25,14.25-20.23,30.58-25.18,49.11
	c22.14-2.55,43.51-5.02,64.88-7.48c0.09,0.92,0.19,1.84,0.28,2.76c-58.28,3.28-113.55,20.65-170.82,35.38
	c9.95,4.28,18.17,8.3,26.73,11.4c12.33,4.46,23.7,14.55,38.35,7.43c0.37-0.18,1.05,0.35,1.6,0.41c26.5,3.26,52.99,6.55,79.49,9.75
	c10.04,1.21,20.11,2.22,30.17,3.33c-39.97,1.98-78.74-12.98-119.06-7.43c5.98,4.4,12.42,7.23,18.38,10.86
	c18.84,11.49,37.43,23.39,56.31,34.82c2.38,1.44,5.99,1.77,8.84,1.35c12.41-1.84,24.68-4.87,37.14-6.05
	c8.68-0.83,17.58,0.64,26.38,1.08c0,0.78-0.02,1.57-0.03,2.35c-21.21-2.71-41.55,0.95-61.9,7.72c11.61,8.05,23.42,15.03,35.41,21.69
	c1.2,0.67,3.47-0.62,5.26-0.95c9.22-1.67,18.45-3.33,27.67-4.99c0.14,0.89,0.28,1.79,0.42,2.68c-8.93,3.19-20.03-1.94-28.58,7.2
	c14.97,8.96,29.21,17.48,43.45,26c-0.27,0.44-0.54,0.88-0.81,1.31c-14.8-8.15-29.6-16.31-44.4-24.46c-1.01,0.46-2.02,0.92-3.03,1.39
	c1.98,9.49,3.96,18.97,5.94,28.46c-2.75-8.1-5.18-16.4-6.39-24.87c-0.76-5.36-1.64-9.69-6.93-12.41
	c-7.25-3.72-14.34-7.77-21.32-11.98c-26.12-15.76-52.12-31.7-78.26-47.42c-5-3.01-10.41-5.34-15.63-7.98
	c1.71,6.73,4.31,12.26,7.88,17.07c15.88,21.38,39.16,34.69,58.08,52.77c8.49,8.11,16.36,16.86,24.51,25.31
	c-1.91,1.18-2.71,1.25-2.95,0.91c-17.85-25.51-45.79-39.81-67.47-61c-8.81-8.61-17.1-18.41-23-29.12
	c-3.92-7.11-7.98-13.16-15.03-15.89c-15.69-6.06-31.78-11.07-49.15-17c0.03,6.86-0.06,11.24,0.1,15.61
	c0.79,22.25,4.19,43.74,16.4,63.11c19.08,30.25,44.94,54.2,71.06,78.02c9.72,8.86,18.64,18.59,27.92,27.93
	c-2.11,1.02-2.97,0.77-3.56,0.22c-17.04-15.97-34.52-31.51-50.93-48.1c-13.82-13.97-26.79-28.84-39.35-43.96
	c-6.28-7.55-10.81-16.56-17.54-27.14c1.74,15.75,3.14,28.97,4.67,42.17c2.13,18.38,4.17,36.78,6.75,55.11
	c0.44,3.12,2.71,6.75,5.25,8.67c18.69,14.08,37.69,27.74,56.49,41.68c2.09,1.55,3.51,4.01,5.24,6.05c-0.34,0.37-0.68,0.73-1.02,1.1
	c-20.74-15.3-41.48-30.6-63.96-47.19c1.69,13.36,3.26,24.37,4.4,35.43c0.61,5.9,3.26,9.81,8.5,12.58c4.5,2.38,8.63,5.49,12.85,8.38
	c9.66,6.6,16.24,15.42,17.42,23.2c-21.83-25.85-22.54-26.09-34.45-29.69c4.2,19.46,8.47,39.25,12.74,59.03L571.94,596.17z
	 M211.54,633.93c8.29-12.61,10.7-30.06,4.71-44.28c-6.19-14.67-15.81-25.53-33.15-28.13c-21.83-3.27-44.77,14.25-53.02,29
	c-12.55,22.42-6.48,50.68,20.14,60.77C166.76,657.56,199.44,654.92,211.54,633.93z M225.41,653.66c-1.66-1.1-3.24-2.34-4.99-3.26
	c-7.32-3.84-14.14-5.3-20.89,1.87c-10.08,10.7-22.1,17.71-37.53,17.62c-2-0.01-4.46,2.99-5.92,5.14c-1.69,2.47-2.4,5.59-3.72,8.33
	c-5.83,12.08-2.9,31,5.99,40.62c14.29,15.47,31.63,18.69,51.29,13.41c17.55-4.71,29.76-15.15,33.85-33.23
	c4.4-19.45-3.66-40.94-18.07-50.5H225.41z M309.04,342.35c4.16-9.19,7.98-17.23,11.42-25.43c1.07-2.55,2.54-6.7,1.38-8.12
	c-6.53-8.02-15.15-13.03-25.78-12.84c-28.24,0.51-43.47,13.67-53.78,34.97c-10.91,22.54,0.56,48.26,23.29,54.46
	c8.93,2.43,18.73,4.07,27.8,3.07c21.78-2.4,41.69-22.88,39.64-47.14C325.95,341.62,318.84,341.93,309.04,342.35L309.04,342.35z
	 M181.91,532.93c22.75,14.91,59.74,11.42,74-19.23c1.14-2.45,1.09-7.16-0.5-8.88c-11.11-11.98-14.17-26.29-13.22-41.88
	c0.33-5.45-1.49-9.66-6.64-11.01c-6.84-1.8-14.09-4.08-20.93-3.48c-20.01,1.76-34.06,13.59-43.65,30.43
	C159.64,498.77,164.5,520.92,181.91,532.93L181.91,532.93z M143.33,719.91c-13.3,15.38-28.83,26.44-51.02,24
	c-2.08-0.23-5.54,1.66-6.51,3.53c-6.17,11.86-8.24,24.08-2.02,36.82c9.61,19.67,30.52,26.96,52.57,22.9
	c24.54-4.52,37.7-20.78,39.68-45.98c0.39-5.02-0.74-9.76-7.77-11.02c-3.74-0.67-7.79-3.88-10.15-7.09
	c-5.5-7.47-10.06-15.63-14.78-23.15V719.91z M323.26,414.17c-6.53-1.57-12.22-3.85-18.01-4.17c-20.62-1.14-36.1,9.38-47.81,24.8
	c-11.27,14.84-14.02,37.13-0.36,52.65c13.16,14.95,30.14,16.34,48.62,14.9c13.13-1.02,14.11-12.83,20.46-19.83
	c0.52-0.57-0.6-3.85-1.75-4.53c-10.02-5.88-10.09-6.1-2.01-11.14c0.88-5.18,1.58-9.26,2.34-13.72c-3.41-0.1-6.72-0.14-10.02-0.3
	c-5.24-0.25-6.65-2.7-3.52-7c4.16-5.72,8.57-11.25,12.97-16.99c-3.37-1.56-5.97-2.76-9.42-4.36
	C317.54,421.1,319.61,418.6,323.26,414.17L323.26,414.17z M253.33,267.91c-6.31-1.36-13.76-4.88-20.74-4.12
	c-22.82,2.51-39.54,13.65-50.03,35.43c-10.28,21.36,0.58,47.09,24.04,55.34c7.94,2.79,25.17-6.64,26.3-15.05
	c2.87-21.46,12.57-38.65,29.91-51.71c1.51-1.14,2.63-5.3,1.76-6.64C261.73,276.8,257.88,273.1,253.33,267.91L253.33,267.91z
	 M53.33,597.8c-9.11,14.45-10.03,28.76-2.1,42.83c12.94,22.98,51.08,22.89,68.31,8.24c1.96-1.67,2.57-6.1,2.24-9.07
	c-1.07-9.63-3.88-19.16-4.01-28.75c-0.07-5.52-1.87-9.09-4.75-13.06c-4.52-6.22-9.71-12.25-12.7-19.18
	c-2.39-5.54-5.36-6.55-10.12-5.32C74.87,577.44,62,585.17,53.33,597.8z M391.27,226.35c6.24,0.34,11.96,0.01,17.4,1.08
	c10.63,2.08,21.09,4.99,31.65,7.41c0.87,0.2,2.27-0.35,2.94-1.03c6.8-6.87,11.19-2.51,15.36,3.15c2.95,4.01,6.22,7.81,8.79,12.05
	c2.7,4.45,4.79,4.78,8.04,0.52c7.54-9.88,12.48-20.84,11.41-33.31c-2.29-26.7-21.82-49.63-52.59-42.38
	c-19.05,4.49-43.11,25.77-43,52.5V226.35z M64.84,671.21c-9.52,15.07-2.52,41.28,13.35,50.92c16.98,10.32,45.83,8.7,60.67-3.9
	c2.44-2.07,4.82-6.43,4.37-9.27c-1.92-12.02,0.5-23.2,4.58-34.26c1.46-3.96,0.65-6.49-3.1-9.02c-7.09-4.79-13.69-10.32-20.76-15.74
	C108.9,667.56,90.97,680.85,64.84,671.21L64.84,671.21z M384.93,227.24c-0.38-17.18,5.1-33.17,15.79-47.57
	c1.32-1.78,2-5.29,1.16-7.2c-3.26-7.36-8.72-12.59-16.47-15.69c-26.38-10.55-52.45,6.85-64.09,26.07c-1.33,2.2-1.85,5.37-1.56,7.96
	c0.75,6.83,2.07,13.6,3.37,20.36c0.21,1.12,1.23,2.66,2.2,2.96c12.02,3.7,20.32,11.94,26.43,21.45c11.18-2.81,21.65-5.45,33.18-8.35
	L384.93,227.24z M53.66,694.54c-28.78,4.5-52.82,36.13-46.02,61.4c6.41,23.83,34.9,38.87,64.76,27.67
	c1.93-13.98,3.9-27.02,5.38-40.13c0.25-2.18-0.95-5.71-2.63-6.73c-15.96-9.73-19.4-25.55-21.48-42.21L53.66,694.54z M305.66,558.88
	c-2.68,5.25-5.02,10.98-8.38,16.04c-2.97,4.48-2.27,7.2,1.5,10.68c12.61,11.63,17.51,26.12,14.23,43.03
	c-0.85,4.39,0.1,6.12,4.61,6.65c26.22,3.08,50.45-10.29,56.49-37.69c3.22-14.6-0.83-24.05-13.17-32.56
	c-4.07-2.81-7.21-6.95-11.22-9.86c-1.88-1.36-5.6-2.55-7.17-1.61C331.16,560.37,319.15,561.62,305.66,558.88L305.66,558.88z
	 M297.84,553.94c-11.2-5.48-19.01-14.32-20.93-25.99c-1.55-9.4-6.02-14.02-15.06-16.9c-11.42,19.17-23.9,37.82-47.81,44.35
	c12.17,11.36,15.07,19.6,15.92,43.73C261.52,608.75,296.57,592.39,297.84,553.94z M226.53,186.95c-0.14-1.18-0.29-2.35-0.43-3.53
	c-7.75-0.87-15.59-2.93-23.23-2.36c-14.75,1.11-26.37,8.64-36.99,19.15c-13.62,13.48-19.68,41.06-3.32,59.65
	c10.72,12.19,20.79,13.07,30.98,5.14c12.2-9.5,19.98-18.96,18.17-36.3C210.15,213.72,216.83,199.28,226.53,186.95L226.53,186.95z
	 M538.61,52.53c-2.13-1.41-4.14-3.06-6.41-4.17c-9.82-4.79-20.15-8.19-30.15-1.5c-9.13,6.11-12.92,15.6-11.87,26.55
	c2.29,23.97,30.57,45.87,52.82,47.04c12.96,0.68,25.5-8.59,24.32-18.15c-2.54-20.49-10.33-38.27-28.7-49.77L538.61,52.53z
	 M313.14,179.92c2.49-5.1,3.8-9.89,6.71-13.32c6.39-7.52,6.31-15.07,3.58-24.04c-5.24-17.21-19.72-29.95-36.36-30.58
	c-24.39-0.92-51.78,21.36-55.57,45.79c-0.53,3.4,0.8,7.96,2.93,10.71c3.33,4.29,7.82,3.53,12.79,0.93
	C269.95,157.54,292.83,158.82,313.14,179.92L313.14,179.92z M226.43,614.44c-1.42,2.16-2.57,3.78-3.59,5.47
	c-3.05,5.05-6.28,9.29,3.15,12.13c5.91,1.78,11.34,6.48,15.96,10.94c11.19,10.79,14.34,24.69,12.85,42.02
	c8.84-2.68,17.13-3.9,24.16-7.56c28.87-15.04,32.19-55.66,9.31-76.65c-4.11-3.77-5.32-4.78-10.18-0.37
	c-14.38,13.03-30.9,20.84-51.65,14.03L226.43,614.44z M160.63,481c0.53-0.55,1.35-1.03,1.62-1.74
	c6.34-16.71,14.08-32.34,30.59-41.62c0.96-0.54,1.49-2.73,1.41-4.11c-0.74-13.99-1.65-27.97-2.58-43.14
	c-10.72-1.92-22.55,0.08-33.56,6.61c-15.86,9.4-26.4,23.08-29.04,41.35c-2.71,18.74,8,32.3,31.56,42.64L160.63,481z M218.92,245.68
	c10.57,0.66,20.18,1.74,29.77,1.58c2.99-0.05,7.13-2.71,8.71-5.37c8.7-14.73,20.75-24.79,37.52-28.55
	c4.92-1.11,10.14-0.91,16.16-1.39c-15.44-27.99-34.24-37.65-54.37-29.69c-28.65,11.33-45.82,38.11-37.79,63.43V245.68z
	 M140.55,492.47c-5.37-10.14-10.27-19.86-15.73-29.27c-0.94-1.61-4.28-2.64-6.48-2.57c-20.83,0.62-34.5,12.18-46.56,28.34
	c-15.8,21.16-6.12,56.51,23.61,62.55C99.01,522.8,110.6,499.69,140.55,492.47z M203.12,372.2c-31.77-16.62-33.52-44.31-28.97-74.14
	c-13.66,0.79-23.38,7.4-32.35,15.06c-23.75,20.28-27.16,58.83,5.41,73.52C163.21,373.56,181.55,368.63,203.12,372.2L203.12,372.2z
	 M74.97,791.55c-11.56,8.54-24.76,13.83-40.57,9.25c-1.6-0.46-5.67,2.7-6.39,4.9c-5.72,17.55-0.46,31.72,17.71,41.97
	c22.72,12.83,50.76,5.9,63.12-18.05c2.2-4.26,1.89-7.53-4.03-9.34c-5.05-1.55-10.44-4.15-14-7.89
	c-5.95-6.24-10.57-13.76-15.83-20.85L74.97,791.55z M372.99,523.05c-5,6.36-10.51,13.36-16.18,20.58
	c13.92,14.98,30.88,16.42,48.32,12.96c18.69-3.71,32.2-15.19,36.11-34.15c2.98-14.44,1.07-29.1-9.18-41.72
	c-10.43,10.81-13.89,26.4-28.23,33.2c-1.19-2.38-2.25-4.5-3.25-6.5c-10.93,2.31-14.57,16.77-27.6,15.63L372.99,523.05z
	 M156.02,508.48c-23.48-3.23-46.44,13.79-52.85,36.46c-4.45,15.74,2.36,33.35,19.35,41.83c9.3-22.57,24.99-38.27,48.21-42.45
	C165.94,532.66,161.23,521.17,156.02,508.48L156.02,508.48z M204.62,433.19c14.43-4.57,28.32-4.48,41.56,2.44
	c7.33-11.11,14.22-21.55,20.75-31.44c-7.16-4.72-16.21-8.55-22.12-15.19c-6.19-6.95-9.34-16.59-13.87-25.13
	C204.06,375.39,188.4,407.79,204.62,433.19z M263.84,251.59c7,9.09,13.51,17.54,19.42,25.22c12.06,1.52,24.25,3.06,35.39,4.47
	c5.11-9.21,10.59-19.84,16.82-30.01c2.8-4.56,2.37-7.31-1.48-10.69C309.04,218.71,279.71,231.88,263.84,251.59L263.84,251.59z
	 M498.29,218.96c-1.91,0.12-4.43,2.56-5.32,4.53c-2.28,5-3.8,10.35-5.14,14.2c9.36,6.17,18.35,12.11,28.15,18.58
	c23.69-8.69,44.34-46.2,31.1-68.66c-2.03,1.9-4.04,3.56-5.8,5.46 M322.54,94.01c11.46,7.57,24.09,2.63,28.11-10.71
	c4.3-14.27,0.64-26.96-6.75-39.17c-3.02-4.99-5.45-10.91-12.53-10.29c-8.43,0.74-14.41,5.71-18.38,13.03
	c-0.91,1.67-1.21,3.66-1.77,5.51C307.11,65.91,310.39,87.33,322.54,94.01L322.54,94.01z M474.83,161.2
	c14.53,10.29,22.44,24.16,22.36,42.37c-0.02,4.69,2.71,4.3,6.79,3.24c15.28-3.95,24.99-15.1,34.83-26.02
	c1.22-1.35,0.76-6.52-0.66-7.57c-8.23-6.08-16.41-12.74-25.67-16.79c-14.9-6.51-30.84-6.13-37.64,4.77H474.83z M371.43,517.43
	c-3.95,1.94-5.9,3.35-8.05,3.85c-4.88,1.14-9.89,1.67-14.78,2.74c-7,1.54-14,3.17-20.9,5.1c-7.78,2.18-15.46,4.82-23.5-1.76
	c6.89-7.96,13.47-15.55,20.05-23.15c-0.46-0.62-0.92-1.23-1.38-1.85c-11.22,10.36-24.25,16.3-40.18,16.35
	c8.11,18.18,22.33,25.65,39.6,26.29c20.31,0.75,38-5.52,49.14-27.59L371.43,517.43z M453.63,490c3.63-5.51,6.59-9.7,9.24-14.07
	c3.78-6.23,3.47-12.67,0.4-19.09c-1.83-3.84-3.84-5.08-7.4-1.3c-7.04,7.47-13.06,14.73-4.55,25.08c1.44,1.75,1.26,4.84,2.3,9.39
	L453.63,490z M471.96,258.51c12.44,8.2,23.37,15.42,35.61,23.49C502.71,265.58,486.42,254.49,471.96,258.51L471.96,258.51z
	 M346.29,274.84c3.74-3.35,6.54-5.85,9.97-8.93c-2.93-2.48-7.6-7.41-8.32-6.89c-5.96,4.34-11.19,9.68-16.64,14.72
	c0.53,0.54,1.06,1.09,1.59,1.63c4.67-0.19,9.34-0.37,13.4-0.54V274.84z M331.99,365.84c8.72-1.07,15.91-2.82,20.46-11.34
	c-4.6-1.77-8.39-3.22-12.57-4.82c-2.56,5.24-4.98,10.19-7.9,16.17L331.99,365.84z M166.63,281.08c-3.91-2.24-8.5-6.17-9.7-5.31
	c-3.2,2.27-4.93,6.6-7.25,10.11c0.73,0.5,1.45,1,2.18,1.5c4.51-1.92,9.03-3.84,14.77-6.29V281.08z"/>
</svg>
