<?xml version="1.0" encoding="utf-8"?>
<!-- Generator: Adobe Illustrator 28.0.0, SVG Export Plug-In . SVG Version: 6.00 Build 0)  -->
<svg version="1.1" id="Layer_1" xmlns="http://www.w3.org/2000/svg" xmlns:xlink="http://www.w3.org/1999/xlink" x="0px" y="0px"
	 viewBox="0 0 5401.6 868.7" style="enable-background:new 0 0 5401.6 868.7;" xml:space="preserve">
<style type="text/css">
	.st0{fill:#422A24;}
	.st1{fill:#A46755;}
</style>
<g>
	<path class="st0" d="M1289.5,207.7h147.7v17.6c-16.6,0.8-32.3,10.2-46.8,28.4c-14.5,18-28.9,45-43.3,81.1l-132.5,333.4h-17.6
		L1033.7,279c-9.4-23.6-17.2-38.3-23.6-44.1c-6.4-5.6-19-8.9-37.8-9.7v-17.6h192.9v17.6h-5.4c-14.4,0-25.2,2.6-33.1,7.7
		c-7.7,5.1-11.5,12.1-11.5,21.1c0-0.6,0.6,3,2.1,10.9c1.4,8,2.9,13.9,4.6,17.9l116.6,279l84-210.8c12-29.2,17.9-53,17.9-71.4
		c0-17.2-4.5-30.7-13.3-40.2c-8.8-9.6-21.2-14.2-37.4-14.2L1289.5,207.7L1289.5,207.7z M1043.5,274.7l157.3,376.4
		c6.2-11.5,9.3-19.8,9.3-24.7c0-4.9-3-14.4-9.3-27.6l-134.1-321.4c-5.7-13.9-10.7-24.4-15-31.8c-4.3-7.2-9.7-12.6-16.3-16.1
		s-16-5.7-27.9-6.5c7.8,3,14.2,8.1,18.8,15.3C1031,245.4,1036.8,257.5,1043.5,274.7L1043.5,274.7z M1385.3,225.4h-63.1
		c17.1,9.9,26.2,26.7,27.6,50.6C1359.2,253.2,1371,236.3,1385.3,225.4z"/>
	<path class="st0" d="M1474.6,207.7h213.3v17.6c-20.1,0.5-35.6,3-46.6,7.8c-11,4.8-16.9,14.5-17.7,29.1c-0.5,8.9-0.8,16.1-1.3,21.2
		c-0.5,5.3-0.6,7.5-0.6,6.9v295.4c0,12.6,1.3,22.7,4,30c2.7,7.5,6.4,12.8,11.3,16s10.5,5.4,16.9,6.5c6.4,1.1,17.7,2.4,34,3.7v17.6
		h-213.3v-17.6c19-0.2,33.4-2.2,43.1-5.9s16-9.7,18.8-17.9c2.9-8.1,4.3-21.2,4.3-39.3V292.9c0-17.1-0.8-29.7-2.4-38
		c-1.6-8.1-4.6-14.2-9.1-17.7c-4.5-3.7-10.5-6.1-18-7.5c-7.5-1.4-19.8-2.9-36.7-4.3V207.7L1474.6,207.7z M1551.6,283.7v319
		c0,10.9-1.9,18.8-5.7,24c-3.8,5.1-10.4,10.2-19.8,15.3c13.9-0.5,25.1-2.7,33.7-6.9c8.5-4.2,12.8-13.3,12.8-27.5V267.9
		c0-14.5-3-25.4-8.9-32.7c-5.9-7.2-17.9-10.5-35.6-9.9c16.3,8.6,24.3,24.7,24.3,48.7c0,1.8,0,3.4-0.2,4.8
		C1551.9,280.3,1551.7,281.9,1551.6,283.7L1551.6,283.7z"/>
	<path class="st0" d="M2057.6,225.4v-17.6h171.3v17.6c-14.4,0.5-26.8,3.7-37.7,9.6c-10.7,5.9-19.3,14.7-25.4,26
		c-6.2,11.5-9.3,25.1-9.3,41.2l6.1,367.4h-19.8l-327.3-382.4l4.8,257.2c0.5,16,1.8,29.5,3.8,40.6c2.1,11,5.9,20.6,11.5,28.7
		c5.6,8.1,13.6,14.5,23.8,19.2c10.4,4.6,23.8,7.8,40.2,9.3v17.6h-170.1v-17.6c22.2-1.8,38.6-7.7,49.5-17.9
		c10.7-10.2,17.4-23,20-38.3c2.6-15.3,3.4-34.5,2.6-57.5l-4.5-262.3c-12.1-13.3-24-23.3-35.6-30.2c-11.7-6.9-23.5-10.4-35.9-10.4
		h-3.8V208H1854l288.5,336.6l-4.5-225.1c0-17.2-1.8-31.9-5.3-44.1c-3.5-12.1-9.4-21.9-17.7-29.4c-5.9-5.9-14.5-10.9-25.7-14.8
		C2078.3,227,2067.6,225.2,2057.6,225.4L2057.6,225.4z M2119.4,592l-288.5-336.6c-5.9-7.7-13.1-14.7-21.2-20.8
		c-8.3-6.2-19.8-9.3-34.8-9.3h-14.4c12,4.3,21.2,9.4,27.9,15.5c6.5,6.1,16,16.3,27.9,30.7l328.9,383.1c-0.2-6.2-0.5-12.3-0.8-18
		s-1-10.2-2.1-13.1c-1.1-2.9-3-6.4-6.1-10.7C2133.1,608.3,2127.5,601.4,2119.4,592L2119.4,592z M1769,642h67.5
		c-9.4-7.2-16.1-14.1-20-20.1c-4-6.2-7.3-14.8-10.1-25.9c-2.7,10.1-7,18.7-12.8,26C1788,629.4,1779.7,636.1,1769,642L1769,642z
		 M2169.7,225.4h-70.1c10.7,3.7,19.3,8.6,26,15c6.7,6.4,12.5,15.2,17.1,26.2C2147.8,247.6,2156.7,233.9,2169.7,225.4L2169.7,225.4z"
		/>
	<path class="st0" d="M2405.8,436.2v141c0,15.6,1.1,27.8,3.4,36.4c2.2,8.6,6.4,15,12.3,19.2c5.9,4.2,14.5,6.7,25.7,7.8
		c11.2,1.1,26.5,1.6,46,1.6c23.5,0,44.5-3.5,63.2-10.7c18.7-7.2,36.2-17.7,52.9-31.8c16.6-14.1,34.6-32.6,54.3-55.9h25.5L2649,659.7
		h-394.2v-17.6c19-0.5,33.5-2.1,43.4-4.9c9.9-2.9,16.9-7.7,21.1-14.4c4.2-6.7,6.2-16.3,6.2-28.7V277.3c0-15-1.9-25.9-5.7-32.7
		s-10.4-11.5-19.5-13.9c-9.3-2.4-24.3-4.2-45.5-5.3v-17.6h378.6l38.8,102.2h-23c-12.5-15.6-27.5-29.7-45.3-42.5
		c-17.9-12.8-37.8-22.8-59.9-30.7c-22-7.7-45.3-11.5-69.9-11.5c-19.5,0-34,2.1-43.9,6.2s-16.3,10.1-19.5,17.4
		c-3.2,7.3-4.8,17.2-4.8,29.5v139.7h64.3c56.2,0,84.6-25.7,85.3-77.1h22.4v169.7H2558c-2.6-26-9.9-45-21.9-56.8
		c-12.1-11.8-30.5-17.7-55.2-17.7L2405.8,436.2L2405.8,436.2z M2336.2,279.8v309.8c0,15.6-1.8,27-5.4,34.3
		c-3.7,7.2-9.1,13.4-16.3,18.2c17.7-0.2,29.2-4.8,34.5-13.9c5.3-9.1,7.8-23.8,7.8-44.1V274.1c0-18.2-3-30.2-9.3-36.1
		c-6.2-5.9-17.2-9.1-33.1-9.4c7.8,4.3,13.6,10.1,16.8,17.1C2334.6,252.9,2336.2,264.2,2336.2,279.8L2336.2,279.8z M2551.4,456.9
		v-62.8c-8.3,14.4-23.5,24.7-45.5,31.5c11.8,3.2,21.1,7,27.9,11.5C2540.7,441.6,2546.6,448.1,2551.4,456.9L2551.4,456.9z
		 M2603.3,225.4h-58c16,5.3,30.2,11.8,42.6,19.2c12.5,7.5,25.5,16.4,39.4,26.8L2603.3,225.4L2603.3,225.4z M2617.2,642.1l22-55.7
		c-12.6,13.7-24,23.8-34.3,30.7c-10.2,6.7-24.7,15.2-43.6,25.1H2617.2L2617.2,642.1z"/>
	<path class="st0" d="M2739.9,497h21.1c11.8,33.7,25.9,62.1,42.5,85.1c16.6,23,34.6,39.9,54.1,51.1c19.5,11.2,39.9,16.6,61.3,16.6
		c26.7,0,49.5-8.3,68.5-25.1c19-16.6,28.6-38,28.6-64c0-24.3-6.2-43.3-18.8-56.8c-12.6-13.6-27.6-23-45.2-28.6
		c-17.6-5.4-40.6-10.5-69.1-15.2c-28.6-4.6-48.9-9.1-60.8-13.1c-18.5-6.4-34.3-15.2-47.4-26.3c-13.1-11.2-22.8-24.7-29.7-40.4
		c-6.7-15.6-10.1-32.6-10.1-50.5s3-33.5,8.9-49.3c5.9-15.8,14.4-29.9,25.2-42c10.9-12.1,24.1-21.7,39.9-28.9
		c15.6-7,33.2-10.5,52.4-10.5c13.9,0,31,1.9,51.1,5.9c20.1,4,34.8,5.9,44.1,5.9c11.5,0,22.4-2.6,32.7-7.7h24.3l13.7,131.6h-22.4
		c-20.9-39.3-42.8-69.3-65.8-89.9s-50-31-80.8-31c-15.3,0-29.7,3.5-43,10.7c-13.3,7.2-23.8,17.1-31.9,29.7c-8,12.6-12,26.5-12,41.7
		c0,21.4,7.2,37.7,21.7,49s36.1,19.8,64.5,25.5c28.6,5.7,54,10.7,76.5,14.7c22.5,4,40.4,9.3,53.7,15.6c24.3,12,43.3,28.6,56.7,49.7
		c13.4,21.1,20.1,45,20.1,71.7c0,26.7-6.2,49.5-18.5,71.7c-12.5,22.2-29.9,39.9-52.2,53.3c-22.4,13.4-47.4,20-74.9,20
		c-15.6,0-27.3-1.1-35.3-3.5c-8-2.4-21.4-6.9-40.7-13.7c-19.2-6.9-34-10.2-44.2-10.2c-17.1,0-30.7,6.5-40.7,19.5h-18.2L2739.9,497
		L2739.9,497z M2750.4,292.3c-3.7,16.3-5.4,29.4-5.4,39.4c0,11.3,1.9,22.7,5.7,34.2c3.8,11.5,9.6,22.2,16.9,32.4
		c7.3,10.2,16,18.4,25.2,24.9c12.6,8.6,26.5,14.5,41.7,18c15.2,3.5,37.4,7.7,66.4,12.5c29.2,4.8,49.3,9.4,60.4,13.9
		c20.4,7.5,36.4,18.8,47.9,34.3c11.5,15.3,17.1,33.4,17.1,54.1c0,15.3-4.3,31.6-13.1,48.7c17.6-18.2,26.2-39.4,26.2-63.7
		c0-24.3-6.4-45-19.3-59.4c-12.9-14.4-28.9-25.1-48.1-32.1c-19.2-7-45.2-13.4-78.2-19.2c-33.1-5.9-50.1-8.9-50.9-9.1
		c-30.3-7.8-53.3-21.6-69-41c-15.6-19.5-23.5-41.8-23.5-67.2c0-4.6,0-8.6-0.2-11.8C2750.1,297.7,2750.2,294.9,2750.4,292.3
		L2750.4,292.3z M2750.4,556.6v85.6c6.2-8.1,12-13.4,17.1-15.6c5.3-2.4,13.3-3.4,24.1-2.9c-7-8.3-12.1-14.5-15.2-18.4
		c-3-4-6.9-9.9-11.5-17.6C2760.5,579.7,2755.5,569.3,2750.4,556.6L2750.4,556.6z M2992,289.7l-10.5-61.2c-7,2.4-14.1,3.5-21.1,3.5
		c-7.7,0-16-1.1-24.9-3.5c8.5,5.6,16,11.8,22.4,18.5c6.4,6.9,13.1,15,20.1,24.7C2984.8,281.4,2989.6,287.3,2992,289.7L2992,289.7z"
		/>
	<path class="st0" d="M3136,497h21.1c11.8,33.7,25.9,62.1,42.5,85.1c16.6,23,34.6,39.9,54.1,51.1c19.5,11.2,39.9,16.6,61.3,16.6
		c26.7,0,49.5-8.3,68.5-25.1c19-16.6,28.6-38,28.6-64c0-24.3-6.2-43.3-18.8-56.8c-12.6-13.6-27.6-23-45.2-28.6
		c-17.6-5.4-40.6-10.5-69.1-15.2c-28.6-4.6-48.9-9.1-60.8-13.1c-18.5-6.4-34.3-15.2-47.4-26.3c-13.1-11.2-22.8-24.7-29.7-40.4
		c-6.7-15.6-10.1-32.6-10.1-50.5s3-33.5,8.9-49.3c5.9-15.8,14.4-29.9,25.2-42c10.9-12.1,24.1-21.7,39.9-28.9
		c15.6-7,33.2-10.5,52.4-10.5c13.9,0,31,1.9,51.1,5.9s34.8,5.9,44.1,5.9c11.5,0,22.4-2.6,32.7-7.7h24.3l13.7,131.6h-22.4
		c-20.9-39.3-42.8-69.3-65.8-89.9s-50-31-80.8-31c-15.3,0-29.7,3.5-43,10.7c-13.3,7.2-23.8,17.1-31.9,29.7c-8,12.6-12,26.5-12,41.7
		c0,21.4,7.2,37.7,21.7,49c14.5,11.3,36.1,19.8,64.5,25.5c28.6,5.7,54,10.7,76.5,14.7c22.5,4,40.4,9.3,53.7,15.6
		c24.4,12,43.3,28.6,56.7,49.7c13.4,21.1,20.1,45,20.1,71.7c0,26.7-6.2,49.5-18.5,71.7c-12.5,22.2-29.9,39.9-52.2,53.3
		c-22.4,13.4-47.4,20-74.9,20c-15.6,0-27.3-1.1-35.3-3.5c-7.8-2.4-21.4-6.9-40.7-13.7c-19.2-6.9-34-10.2-44.2-10.2
		c-17.1,0-30.7,6.5-40.7,19.5h-18.2L3136,497L3136,497z M3146.5,292.3c-3.7,16.3-5.4,29.4-5.4,39.4c0,11.3,1.9,22.7,5.7,34.2
		c3.8,11.5,9.6,22.2,16.9,32.4c7.5,10.1,16,18.4,25.2,24.9c12.6,8.6,26.5,14.5,41.7,18c15.2,3.5,37.4,7.7,66.4,12.5
		c29.2,4.8,49.3,9.4,60.4,13.9c20.4,7.5,36.4,18.8,47.9,34.3c11.5,15.5,17.1,33.4,17.1,54.1c0,15.3-4.3,31.6-13.1,48.7
		c17.6-18.2,26.2-39.4,26.2-63.7c0-24.3-6.4-45-19.3-59.4s-28.9-25.1-48.1-32.1c-19.2-6.9-45.2-13.4-78.2-19.2
		c-33.1-5.9-50.1-8.9-50.9-9.1c-30.3-7.8-53.3-21.6-69-41c-15.6-19.5-23.5-41.8-23.5-67.2c0-4.6,0-8.6-0.2-11.8
		C3146.4,297.7,3146.4,294.9,3146.5,292.3L3146.5,292.3z M3146.5,556.6v85.6c6.2-8.1,12-13.4,17.1-15.6c5.3-2.4,13.3-3.4,24.1-2.9
		c-7-8.3-12.1-14.5-15.2-18.4c-3-4-6.9-9.9-11.5-17.6C3156.6,579.7,3151.8,569.3,3146.5,556.6L3146.5,556.6z M3388.1,289.7
		l-10.5-61.2c-7,2.4-14.1,3.5-21.1,3.5c-7.7,0-16-1.1-25.1-3.5c8.5,5.6,16,11.8,22.4,18.5c6.4,6.9,13.1,15,20.1,24.7
		C3381.1,281.4,3385.7,287.3,3388.1,289.7z"/>
	<path class="st0" d="M3656.2,436.2v141c0,15.6,1.1,27.8,3.4,36.4c2.2,8.6,6.4,15,12.3,19.2c5.9,4.2,14.5,6.7,25.7,7.8
		c11.2,1.1,26.5,1.6,46,1.6c23.5,0,44.5-3.5,63.2-10.7c18.7-7.2,36.2-17.7,52.9-31.8c16.6-14.1,34.6-32.6,54.3-55.9h25.5
		l-40.1,115.9h-394.2v-17.6c19-0.5,33.5-2.1,43.4-4.9c9.9-2.9,16.9-7.7,21.1-14.4c4.2-6.7,6.2-16.3,6.2-28.7V277.3
		c0-15-1.9-25.9-5.7-32.7c-3.8-6.9-10.4-11.5-19.5-13.9c-9.3-2.4-24.3-4.2-45.5-5.3v-17.6h378.7l38.8,102.2h-23
		c-12.5-15.6-27.5-29.7-45.3-42.5c-17.9-12.8-37.8-22.8-59.9-30.7c-22-7.7-45.3-11.5-69.9-11.5c-19.5,0-34,2.1-43.9,6.2
		c-9.9,4.2-16.3,10.1-19.5,17.4c-3.2,7.3-4.8,17.2-4.8,29.5v139.7h64.3c56.2,0,84.6-25.7,85.3-77.1h22.4v169.7h-19.8
		c-2.6-26-9.9-45-21.9-56.8c-12.1-11.8-30.5-17.7-55.2-17.7L3656.2,436.2L3656.2,436.2z M3586.8,279.8v309.8c0,15.6-1.8,27-5.4,34.3
		c-3.7,7.2-9.1,13.4-16.3,18.2c17.7-0.2,29.2-4.8,34.5-13.9c5.3-9.1,7.8-23.8,7.8-44.1V274.1c0-18.2-3-30.2-9.3-36.1
		c-6.2-5.9-17.2-9.1-33.1-9.4c7.8,4.3,13.6,10.1,16.8,17.1C3585,252.9,3586.8,264.2,3586.8,279.8L3586.8,279.8z M3802,456.9v-62.8
		c-8.3,14.4-23.5,24.7-45.5,31.5c11.7,3.2,21.1,7,27.9,11.5C3791.1,441.6,3797.1,448.1,3802,456.9L3802,456.9z M3853.9,225.4h-58
		c16,5.3,30.2,11.8,42.6,19.2s25.5,16.4,39.4,26.8L3853.9,225.4L3853.9,225.4z M3867.6,642.1l22-55.7c-12.6,13.7-24,23.8-34.3,30.7
		c-10.2,6.7-24.7,15.2-43.6,25.1H3867.6L3867.6,642.1z"/>
	<path class="st0" d="M4292,225.4v-17.6h171.3v17.6c-14.4,0.5-26.8,3.7-37.7,9.6c-10.7,5.9-19.3,14.7-25.4,26
		c-6.2,11.5-9.3,25.1-9.3,41.2l6.1,367.4h-19.8L4050,287.2l4.8,257.2c0.5,16,1.8,29.5,3.8,40.6c2.1,11,5.9,20.6,11.5,28.7
		c5.6,8.1,13.6,14.5,23.8,19.2c10.4,4.6,23.8,7.8,40.2,9.3v17.6h-170.1v-17.6c22.2-1.8,38.6-7.7,49.5-17.9
		c10.7-10.2,17.4-23,20-38.3s3.4-34.5,2.6-57.5l-4.5-262.3c-12.1-13.3-24-23.3-35.6-30.2c-11.7-6.9-23.5-10.4-35.9-10.4h-3.8V208
		h132.2L4377,544.6l-4.5-225.1c0-17.2-1.8-31.9-5.3-44.1c-3.5-12.1-9.4-21.9-17.7-29.4c-5.9-5.9-14.5-10.9-25.7-14.8
		C4312.6,227,4301.9,225.2,4292,225.4L4292,225.4z M4353.8,592l-288.5-336.6c-5.9-7.7-13.1-14.7-21.2-20.8
		c-8.3-6.2-19.8-9.3-34.8-9.3h-14.4c12,4.3,21.2,9.4,27.9,15.5c6.5,6.1,16,16.3,27.9,30.7l328.9,383.1c-0.2-6.2-0.5-12.3-0.8-18
		c-0.3-5.9-1-10.2-2.1-13.1c-1.1-2.9-3-6.4-6.1-10.7C4367.4,608.3,4362,601.4,4353.8,592L4353.8,592z M4003.4,642h67.5
		c-9.4-7.2-16.1-14.1-20-20.1c-4-6.2-7.3-14.8-10.1-25.9c-2.7,10.1-7,18.7-12.8,26C4022.2,629.4,4014.1,636.1,4003.4,642L4003.4,642
		z M4404.1,225.4H4334c10.7,3.7,19.3,8.6,26,15c6.7,6.4,12.5,15.2,17.1,26.2C4382.1,247.6,4391,233.9,4404.1,225.4L4404.1,225.4z"/>
	<path class="st0" d="M4895.5,201.6h26.2v142h-19.8c-10.1-20.9-20.9-39.3-32.6-55.2s-24-29.2-37-39.8c-13.1-10.5-26.7-18.5-41-23.6
		c-14.4-5.3-29.7-7.8-46.1-7.8c-22.2,0-42.3,4.9-60.5,14.8c-18.2,9.9-33.7,24.1-46.5,42.6c-12.8,18.5-22.8,40.9-30,67.4
		c-7.2,26.5-10.7,54.8-10.7,84.9c0,42,7,79.5,21.1,112.1c14.1,32.7,33.9,58.1,59.1,76.3c25.2,18.2,54.1,27.5,86.4,27.5
		c19.8,0,39-3.2,57.5-9.7c18.5-6.5,36.1-16.4,53-29.9c16.9-13.4,32.6-30,47.1-49.8l18.8,10.5c-24.1,34.8-53,61-86.9,78.6
		c-33.7,17.6-72.7,26.3-116.6,26.3c-34.2,0-65.6-5.9-94.5-17.9c-28.9-12-53.7-28.7-74.6-50.1c-20.9-21.4-37-46.3-48.2-74.7
		c-11.2-28.4-16.8-58.4-16.8-90.1c0-34.2,6.1-65.9,18.2-95.3c12.1-29.4,29.1-54.6,50.5-75.7c21.4-21.1,46.3-37.4,74.6-48.9
		s58.3-17.1,90.2-17.1c12,0,23.2,1,33.5,2.7s22.7,4.6,37,8.5s24,6.4,29.1,7.5c4.9,1.1,10.9,1.8,17.4,1.8
		C4870.4,219.6,4884.3,213.7,4895.5,201.6L4895.5,201.6z M4671.6,215.8c-33.1,12.6-60.2,27.6-81.3,45.2
		c-12.1,10.2-23,21.7-32.4,34.6c-9.4,12.8-17.4,26.5-23.8,41c-6.5,14.5-11.5,30.2-15,46.9c-3.5,16.8-5.3,33.2-5.3,49.2
		c0,38.5,7.8,73.9,23.6,106.5c15.8,32.6,39.4,59.6,70.7,81c31.5,21.4,68.8,34.6,112.1,39.6c-28.4-7.5-54.3-18.5-77.6-33.1
		c-23.3-14.5-43.3-31.9-59.6-52.2s-28.6-42.3-36.9-66.1c-8.1-23.8-12.3-48.7-12.3-74.4c0-21.4,3.5-43.8,10.5-67.2
		c7-23.5,16.9-44.4,29.5-62.4c14.5-20.8,29.4-37.4,44.4-50C4633.4,241.8,4651,228.7,4671.6,215.8L4671.6,215.8z M4883,282.4
		l-1.9-54.4c-10.1,4.5-20.6,6.7-31.8,6.7c-5.3,0-10.4-0.5-15-1.3c10.9,8.3,20,16.4,27.3,24.1C4868.8,265.3,4876,273.6,4883,282.4z"
		/>
	<path class="st0" d="M5118.4,436.2v141c0,15.6,1.1,27.8,3.4,36.4c2.2,8.6,6.4,15,12.3,19.2c5.9,4.2,14.5,6.7,25.7,7.8
		c11.2,1.1,26.5,1.6,46,1.6c23.5,0,44.5-3.5,63.2-10.7c18.7-7.2,36.2-17.7,52.9-31.8c16.6-14.1,34.6-32.6,54.3-55.9h25.5
		l-40.1,115.9h-394.2v-17.6c19-0.5,33.5-2.1,43.4-4.9c9.9-2.9,16.9-7.7,21.1-14.4c4.2-6.7,6.2-16.3,6.2-28.7V277.3
		c0-15-1.9-25.9-5.7-32.7c-3.8-6.9-10.4-11.5-19.5-13.9c-9.3-2.4-24.3-4.2-45.5-5.3v-17.6h378.6l38.8,102.2h-23
		c-12.5-15.6-27.5-29.7-45.3-42.5c-17.9-12.8-37.8-22.8-59.9-30.7c-22-7.7-45.3-11.5-69.9-11.5c-19.5,0-34,2.1-43.9,6.2
		c-9.9,4.2-16.3,10.1-19.5,17.4c-3.2,7.5-4.8,17.2-4.8,29.5v139.7h64.3c56.2,0,84.6-25.7,85.3-77.1h22.4v169.7h-19.8
		c-2.6-26-9.9-45-21.9-56.8c-12.1-11.8-30.5-17.7-55.2-17.7L5118.4,436.2L5118.4,436.2z M5048.9,279.8v309.8c0,15.6-1.8,27-5.4,34.3
		c-3.7,7.2-9.1,13.4-16.3,18.2c17.7-0.2,29.2-4.8,34.5-13.9c5.3-9.1,7.8-23.8,7.8-44.1V274.1c0-18.2-3-30.2-9.3-36.1
		s-17.2-9.1-33.1-9.4c7.8,4.3,13.6,10.1,16.8,17.1C5047.1,252.9,5048.9,264.2,5048.9,279.8L5048.9,279.8z M5264.1,456.9v-62.8
		c-8.3,14.4-23.5,24.7-45.5,31.5c11.7,3.2,21.1,7,27.9,11.5C5253.3,441.6,5259.2,448.1,5264.1,456.9L5264.1,456.9z M5316,225.4h-58
		c16,5.3,30.2,11.8,42.6,19.2s25.5,16.4,39.4,26.8L5316,225.4L5316,225.4z M5329.8,642.1l22-55.7c-12.6,13.7-24,23.8-34.3,30.7
		c-10.2,6.7-24.7,15.2-43.6,25.1H5329.8L5329.8,642.1z"/>
</g>
<path class="st1" d="M578.2,13.3c16.6,24.3,19.9,50.7,6.3,76.5c-9.4,17.9-7.4,38-15.3,55.7c-1.3,3-1.6,6.7-3.5,9.3
	c-8.6,11.9-5.9,23-1.6,36.2c7.8,23.7-3,56.6-31.4,74.1c-3.7,2.3-9,4.8-9.8,8c-1.3,5.7,0.1,12.2,1,18.2c0.2,1.4,2.7,2.5,2.9,2.6
	c6.6-3.7,12-7.6,17.9-10c10.2-4,15.3-12.3,19.4-21.2c6.8-14.9,12.2-30.4,18.8-45.4c1.8-4.1,6-7.4,11-3.6c5.4,4.2,8.1,1.9,11.5-2.8
	c2.4-3.3,6.6-5.5,10.3-7.7c4.2-2.5,9.1-4.2,13.2-6.8c6.2-4,12.3-7.8,20.9-5.2c0.5,3.5,1.1,7.3,1.8,11.9c3.7-0.9,7.4-1.7,11.9-2.8
	c3.7,8.3,9.7,6.6,17.1,3.3c5.9-2.6,12.6-3.2,21.8-5.4c-1.5,7.8-2.6,13.6-3.8,20.1c1.8,1.4,8.3-3.4,8.6,4c1.7-0.3,3.3-0.8,5-0.9
	c5.3-0.4,10.6-0.6,15.9-0.8c-0.7,5-1.4,10.1-2.1,15.1c-0.1,0.5,0.2,1,0.5,2.5c9-2.6,18-5.3,29.2-8.6c-2,3.1-2.4,3.9-3,4.4
	c-12.8,11.6-12.3,17.2,0.5,27.8c5.5,4.5,9.1,11.2,14.1,17.5c-9.8,2.4-17.8,3.1-24.5,6.5c-6.5,3.3-11.6,9.4-17.3,14.3
	c5.7,6.4,13.2,5.1,20.3,4.2c10.1-1.2,10-1.5,9.2,9.6c7.4,0.5,16.2-0.8,17.3,10.4c0.1,0.8,3.8,1.1,5.8,1.8c6.5,2.1,12.9,4.2,19.4,6.3
	c0,0.9,0.1,1.9,0.1,2.8c-7.7,4.7-15.3,9.4-23.4,14.3c6.7,3.8,13.7,6.2,7.9,15.3c-0.8,1.3,2.6,6,4.8,8.4c3.8,4.1,8.2,7.6,13.9,12.8
	c-8,1.4-12.8,2.3-17.6,3.2c-0.6,0.8-1.1,1.7-1.7,2.5c3.3,3.2,7,6.2,9.8,9.8c1.4,1.9,2.4,5.6,1.5,7.4c-1.4,2.7-4.6,4.5-7.9,7.4
	c4.2,3.3,8.3,6.5,12.9,10.1c-1.6,2.1-3.2,4.2-5.9,7.8c4.6,3.7,9.1,7.6,13.9,11.1c4.8,3.5,9.9,6.6,17.5,11.6
	c-7.7,2.2-13.1,4.5-18.8,5.1c-6.3,0.6-12.8-0.6-19.1-0.5c-3.8,0-7.7,0.9-11.5,1.6c-3.3,0.5-6.6,2-9.7,1.8c-7-0.6-14.3-4.9-19.4,4.2
	c-0.4,0.7-5.1-0.7-7.6-1.5c-3.1-1.1-6-2.8-9.2-3.9c-12.8-4.8-14.4-3.7-15.1,12.5c-6.9-4.5-13-7.7-18.1-12.2c-9-7.9-16.8-17-26-24.7
	c-7.1-5.9-15.9-8.2-25.2-5.3c-5.9,1.8-8.4,6.4-4.3,11.3c6,7.2,13.1,13.5,19.9,20c3.2,3.1,6.5,6,10.1,8.7c6.8,5,3.2,7.6-1.5,9.7
	c3.8,4.5,7.5,9.1,11.2,13.6c-1.6,1.3-3.2,2.6-5.3,4.3c1.9,3.6,4.1,7.7,6.4,12.1c-12,8,2.6,18.7-2.9,27.8c-5.9-1.5-11.6-3-18.4-4.8
	c0.1,3.2-0.4,5.3,0.4,6.8c2.3,4.4,1.4,6.2-3.5,7.8c-2.1,0.7-4.2,4.4-4.5,7c-0.7,5.9-0.2,12-0.2,18.6c-6.3-1.9-11.4-3.4-14.2-4.3
	c-3.5,3.9-5.7,6.2-7.7,8.8c-0.7,0.9-0.7,2.4-1,3.7c-1.2,4.4-2.3,8.8-3.5,13.3c-7.9-3.1-13.9,2-17.8,15.3c-0.5,0.2-1.1,0.6-1.6,0.5
	c-13.2-2.2-13.8-1.9-18.3,11.2c-3,8.8-5.8,17.7-9.5,29c-3.4-5.3-5.3-9-7.8-12c-5.2-6.1-9.7-14.8-16.4-17.1
	c-9.2-3.2-18.5-4.1-23.6-14.1c-0.5-1-4.4,0-6.7-0.4c-2.8-0.4-7.3-0.3-8.1-1.9c-2.5-5.4-4.8-10.3-11.1-12c-0.7-0.2-0.9-2.3-1.5-4.2
	c-4.8,3.6-9,6.8-15.8,11.8c-0.9-7.3-1.5-12.3-2.1-17.3c-0.9-7.4-2.9-13.1-12.7-8.2c-0.4-4-0.7-7.4-1-11.8
	c-5.7,3.4-10.5,6.3-15.4,9.2c-1.3,0-2.6,0-3.9,0c0-4,0-7.9,0.1-11.9c0.2-6.1,0.1-11.5-5.4-16.2c-2.1-1.8-0.6-8-0.8-14.3
	c-2.8,1.9-6.1,3.2-8,5.6c-8.7,11.5-18,22.1-31.2,28.4c-4.7,2.2-9.9,4.1-15,4.5c-4.5,0.3-5.5,1.7-6.3,5.7c-3,14.6-7.3,28.8-16.5,40.8
	c-11.7,15.4-25.2,28.5-45.7,31.1c-0.6,0.1-1.2,0.5-1.7,0.3c-14-4.1-18.6,6.3-24.2,15.4c-9.8,15.8-22.8,27.1-41.4,31.9
	c-3.8,1-6.8,7.4-9.2,11.8c-13.2,24.5-30.3,43.5-60.1,45.9c-12.2,33.6-27.9,63.7-67.4,68.2c-9.7,11.7-17.7,24.3-28.5,33.5
	c-23.6,20-59.9,15-68.9-22.5c-2.7-11.4-1.2-22.2,0.2-33.4c0.3-2.2,0.2-5.5-1.1-6.5C1,779.9-1.9,759,0.9,737.2
	c2.5-20,11.5-37.5,28.3-49.6c6.2-4.4,13.8-7.1,21-9.7c6.7-2.4,9.4-8.9,4.5-14c-20.3-20.8-17.8-44.6-9.4-69.3
	c5.4-15.7,16.4-26.2,31.3-34.2c-11.8-9.1-17.1-21.3-18.5-34.9c-1.8-17.5,0.9-34.1,10.3-49.7C80,456.6,95,443.5,118.6,443
	c1.4,0,3.7-2.6,4-4.3c1.9-12.5,4.7-24.6,11.9-35.4c1.1-1.7,0.2-6.5-1.4-8.1c-15.4-15-17.9-33.3-14.9-53.3c0.2-1.6,0.3-3.3,0.4-5.2
	c-2.2,1.7-4.1,3.2-8.2,6.4c0-7.2-0.2-12.4,0-17.5c0.4-11.5,1.4-22.9-1.4-34.3c-0.6-2.6,1.9-6.1,3.5-8.9c4.1-7.3,3.4-9.9-6.5-14
	c7.6-7.4,14.7-14.1,21.5-21.1c3.5-3.6,7.3-7.3,9.2-11.7c1.3-3-0.5-7.3-0.9-11.1c-3.8,1-8.3,1-11.3,3.1c-3.8,2.6-5.9,7.6-9.6,10.3
	c-2.9,2.1-5.4,9.6-10.9,2.9c-0.2-0.2-1.3-0.1-1.6,0.2c-9.9,9.3-21.4-0.3-31.9,2.5c-0.7,0.2-3.1-2.5-3.2-4.1
	c-0.2-2.3,0.8-4.8,1.3-7.7c-7.7-3.4-15.2-6.7-23.5-10.4c0.6-1.1,2-4,3.8-7.6c-4.3-2.2-9-3.8-12.8-6.7c-2-1.5-2.3-5.1-2-8.4
	c-3.4-2.3-6.9-4.5-10.4-6.9c2.2-17.4-15.1-13.6-22.9-21.3c0.7-1,1.5-3.2,3-3.9c8.4-3.8,14.9-7.5,18.3-18.1
	c3-9.3,12.4-16.5,19.3-25.2c-0.7-1.6-1.9-4.3-3.9-8.8c9.6,1.1,17.2-1.2,21.5-11.1c0.7,0.9,1.3,1.7,2,2.6c-1-3.3-2.1-6.6-3.1-9.8
	c0.4-0.5,0.7-1.3,1.1-1.4c9.4-2,19.2-6.4,28.2-5.4c11.1,1.3,24,1.9,31.2,13.8c1,1.6,2.6,3.3,4.3,3.8c4.8,1.3,11,5.5,13.8-1.4
	c1.1-2.6-2.6-8.4-5.6-11.1c-8.2-7.6-17.3-14.1-25.7-21.5c-2.3-2-6.6-4.3-2.4-9.4c1.2-1.5-2.2-6.8-3.6-10.2c-1.1-2.8-6-5.6,0-8.5
	c0.5-0.2,0.4-2.1,0.2-3.2c-1.4-9.2-3-18.3-4.3-27.4c-0.5-3.8-0.4-7.6-0.6-11.4c0.6-1,1.2-1.9,1.9-2.8c3.6,3.1,7.9,5.6,10.7,9.3
	c4.1,5.6,8,7.3,13.5,2.3c2.2,2.3,4.1,4.2,6.2,6.3c2.1-2.4,3.9-4.3,4.7-5.1c4.8,1.6,8.4,3.6,12,3.5c1.4,0,2.7-4.9,3.8-7.1
	c8,3.4,16,6.8,24.4,10.3c2.5-4.9,4.8-9.4,8-15.6c3.1,5.8,5.6,13.6,7.4,13.4c9.1-0.8,5.8,6.9,8.5,10.2c5.3-3,6.4-2.3,7.3,3
	c0.7,4.3,2.2,8.5,3.3,12.7c1.3,0,2.7,0.1,4,0.2c3.3-8.8,6.6-17.7,10.2-27.2c8.9-2.8,15.7,19.2,28.3,2.6c-0.1,6.7-0.2,11.6-0.3,18.6
	c2.5-2.8,3.3-3.5,4-4.3c16.6-18.3,39.6-29,65.1-17.7c16.7,7.4,33,15.8,49.9,23c11.9,5.2,19.5,16.4,22.9,28.8
	c-5.9-7.2-11.3-15.4-18.4-21.9c-7.4-6.8-16.6-11.2-28.1-11.8c11.9,14.7,15.9,30.3,12.4,47.9c-2.2,11.1-9.5,20.6-18.7,21
	c-10.3,0.5-20.4-1.8-25.2-12.6c-2.7-6.1-5.6-12.6-6.1-19c-0.8-10.5-0.5-21.7,6.9-30.2c4.1-4.8,10.3-7.7,15.6-11.5
	c-16.9-13.9-42-12.8-58.2-0.3c-10.8,8.3-11.5,9.4-5.4,20.5c3-1.3,5.9-2.5,10.2-4.4c0.1,7.6-1.9,15.2,0.9,19.8
	c2.6,4.2,1.9,14.7,13.1,10.6c-0.9,4.2-1.4,7.2-2,10.1c-0.7,2.8-1.6,5.6-2.4,8.5c33.3,1.4,47.8,16.1,52.2,53.3
	c26.5-17.3,51.6-16.7,74.7,7.1c2.3-9.9,5.9-18.7,6.2-27.7c0.9-23.9,0.2-47.8,0.4-71.7c0.1-11.9,0.5-23.8,1.6-35.7
	c0.2-2.2,4.3-5.9,6.6-5.9c9.9,0.1,18.6,3.2,21,14.8c4.6,22,2.7,44,1.2,66c-0.9,13.7-4,27.4-7.1,40.8c-1.6,7.1-5.1,13.7-7.5,19.8
	c9.1,0.5,17.6,1.1,26.1,1.2c1.8,0,3.5-2.3,5.3-3.4c7.2-4.3,14.1-10.7,21.9-12.4c16.6-3.6,31.7,3,45.8,11.6c5.8,3.5,11,8,16.5,12
	c8.7-11.9,16-34.5,15.5-45.6c-6.5,2.1-13.2,5.8-20.1,6.3c-16.4,1.2-29.8-5.8-42-16.9c-11.8-10.8-19.5-22.7-19.3-39.1
	c0.2-18.6,15.2-33.3,33.5-31.5c23.8,2.3,39.4,16.8,49.9,37c4,7.7,6,16.6,9.3,26.2c2.6-5.6,5.1-9.9,6.7-14.6
	c7.6-22.5,9.6-44.7-4.5-65.7c-2.2-3.4-4.4-6.8-6.6-10.2C574.4,10.8,576.3,12,578.2,13.3L578.2,13.3z M100.1,162.5l0.1,0.3
	c1.9-1.3,3.8-2.7,7-4.8c-14.1-9.3-27.5-18.1-41.6-27.5c1.9-0.3,3.3-0.9,4-0.5c13.3,8.7,26.4,17.7,39.8,26.3c2.7,1.8,6.1,3.4,9.3,3.5
	c6.7,0.2,13.4-0.6,20.1-0.9c11.9-0.5,23.7-1,34-1.4c-25.3-14.3-51.2-29-77.2-43.7c0.4-0.7,0.8-1.5,1.2-2.2
	c10.4,5.9,20.7,12,31.3,17.7c13.8,7.4,27.5,15.1,41.9,21.2c17.1,7.3,35.5,7,54.9,6.7c-2.5-5.7-4.1-10.4-6.5-14.8
	c-5.4-9.8-10.8-18.8-23.9-21c-7.5-1.2-15.1-6.5-21.1-11.8c-14.6-12.9-27.1-28.3-45.3-37c5.1,1.4,10.7,2.2,14.6,5.4
	c10.6,8.6,20.2,18.3,30.5,27.2c8.1,6.9,16.7,13.1,28.9,14.3c-1.1-2-1.4-3.2-2.1-3.9c-15.2-16.2-30.6-32.2-45.4-48.7
	C148,59.6,140.8,56,131,56.4c-4.6,0.2-9.2-1.1-13.8-1.8c0.1-0.6,0.2-1.1,0.2-1.7c7.5,0.6,15.1,1.3,25.1,2.1
	c-9.9-10.4-18-18.9-26.1-27.4c2.6-0.1,4.1,1,5.4,2.3c4.4,4.6,8.1,11.6,13.4,13.2c6.9,2.1,8.1,7.2,11.6,11.5
	c5.1,6.1,11.2,11.4,16.9,17c0.4-0.4,0.8-0.9,1.1-1.3c-3.3-11.8-6.7-23.7-10-35.5c0.8-0.2,1.5-0.4,2.2-0.6
	c4.3,13.7,6.9,28.3,13.5,40.7c6.6,12.3,17.5,22.3,26.5,33.3c0.7-0.4,1.4-0.9,2.1-1.3c-8.1-27.1-17.5-54-18.6-82.5
	c9.3,42.8,17.7,85.8,45.6,122.6c7.4-15.2,8.4-30.7,7.2-46.6c-1.2-16-2.3-32-3.4-48c0.4-0.1,0.7-0.1,1.1-0.2c1.5,8.9,3,17.9,4.8,29
	c10.6-7.6,20.5-14.6,30.3-21.7c0.5,0.7,0.9,1.3,1.3,1.9c-10.2,7.4-20.4,14.8-31.1,22.7c0.4,8.3,0.9,17.9,1.6,30.2
	c13.9-9,25.9-16.8,37.7-24.4c-0.6,1.3-1.5,3.3-2.4,5.3c0.5,0.3,1,0.5,1.4,0.8c2.1-3.6,4.1-7.2,6.2-10.8
	c-12.1-6.3-13.6-17.1-11.8-28.9c-9.8-0.2-14.6-5.1-15.4-15.2c-6.8,3-10.1-0.3-11.5-6.6c-0.2-1,0-2.7-0.5-2.9
	c-5.8-2.5-11.7-4.8-17.2-6.9c-2.8,5.7-5.6,12-9,18s-8.1,5.6-12.3,1.1s-5.3-10.9-11.1-15c-5.5-3.9-8.4-11.5-12.8-18
	c-2.8,4.2-5.1,7.7-8,12.2c-7.4-2.5-14.8-4.9-21.9-7.3c-1.5,7.3-9.1,9.9-16.3,3.7c-5,11.2-10.5-1.3-16.6,0c-4.9,1-11.2-4.9-17.5-8
	c8.5,15.3,1.4,34,11.6,49c0.8,1.2,0.8,3.4,0.3,4.9c-1.3,4.4,1,6.3,4.2,8.8c8.9,6.8,17.6,13.8,26,21.3c4.5,4.1,6.1,9.1,1.6,14.9
	c-5.1,6.6-18.8,7.1-25.4,1.1c-4.3-3.9-9.3-9-14.5-9.8c-10.9-1.7-22.2-0.8-33.4-1c0.5,14.7-10.2,17.7-19.1,21.3
	c-0.5,3.3,0.1,7.5-1.6,8.9c-5.2,4.3-9.1,8.6-12.5,14.9c-5.1,9.4-14.6,16.4-22.4,24.7c3.3,1.6,7.4,2.7,10.1,5.1
	c7.1,6.3,7.9,17.1,15.6,23.2c1.3,1,1.6,3.6,2.9,4.1c7.5,3,11.5,8.2,10.8,16.3c14.8,2.9,19.4,7.9,19.2,20.5c3.1-0.4,6.4-1.8,9.2-1.1
	c15.3,3.4,28.3-0.4,39.2-11.6c1.3-1.4,2.8-3.1,4.5-3.6c4.1-1.2,9.1-3.6,12.4-2.2c2.5,1.1,4.7,7.9,3.6,10.9
	c-2.5,6.5-6.5,12.8-11.1,18.2c-5,5.8-11.3,10.4-17.3,15.8c10.3,4.7,8.1,10.6,2.3,19.7c0,16.5,0.1,30.5,0.1,45.8
	c10-15.2,19.4-29.5,30.1-45.6c-7.9,0.6-13.3,1-18.7,1.5c4.4-2.4,9.1-3.3,13.7-3.4c12.6-0.4,17.6-8.6,11.9-19.5
	c-1.9-3.6-3.5-7.3-5.2-10.9c-1.9,0.8-3.8,1.6-5.6,2.3c6.1-4.5,5.1-10.2,4.7-16.7c-1.5-24.1,5.5-45.5,24.7-61.1
	c8.2-6.7,18.1-11.2,27.3-16.7c-11.6,3.1-23.9,6.1-33.7,12.6c-16.6,11-31.6,24.3-47.2,36.7c-7.2,5.7-14.2,11.7-21.3,17.6
	c25.7-23.6,48.2-51.2,81.3-66c-21.4-0.5-42.2,0.2-62.9,1.1c-1.4,0.1-3,1-3.9,2.1c-13,13.6-25.7,27.6-38.4,41.5
	c-0.5-0.4-1-0.9-1.5-1.3c12-13.6,24-27.1,36.6-41.4C103.8,163.5,102,163,100.1,162.5L100.1,162.5z M571.9,596.3
	c-2.1,0.4-4.1,0.7-6.2,1.1c-3.4-19-6.8-38-10.2-57.1c-1.2-0.1-2.3-0.2-3.5-0.4c-5,11.9-9.9,23.8-14.9,35.7c1.3-8.6,4-16.7,7.1-24.6
	c2.9-7.2,9-14.3,8.9-21.3c-0.2-13.3-4-26.5-6.4-40.9c-21.4,19.5-25.2,48.2-42.1,68.9c6.9-15.4,13.4-30.8,20.6-45.8
	c3.3-7,6.6-15.1,12.2-19.9c7-5.9,8.4-12,7.2-20c-4.2-29.1-8.3-58.3-12.6-89c-9.8,52.4-38.9,95.3-59.4,141.9c-0.2-2-0.1-4,0.6-5.7
	c14.6-32.5,29.7-64.9,43.7-97.6c14.3-33.3,14.1-68.1,9.1-104.8c-11.5,7.1-22.5,13-32.3,20.5c-8.8,6.6-16.5,13.8-16.1,27.4
	c0.2,8.2-4.2,17.5-9,24.6c-10.7,16.2-23.6,31-34.4,47c-7.6,11.3-13.4,23.8-20,35.7c4.1-11.6,8.2-23.6,14.9-33.8
	c10.9-16.7,24.1-31.9,35.2-48.5c6.5-9.8,10-21.4,9.6-35c-5.5,5.7-10,10.2-14.4,14.9c-11.4,12.2-22.9,24.4-33.9,36.9
	c-11.2,12.9-22,26.2-32.7,39.5c-1.6,2-2.4,5.1-2.4,7.6c-0.1,9.5,0.6,18.9,0.5,28.4c-0.1,4.6-1.4,9.2-2.1,13.8
	c-0.3-0.1-0.6-0.2-0.8-0.3c0-13.7,0-27.5,0-41.2c-0.8,0-1.5-0.1-2.2-0.1c-13.4,15.4-26.9,30.7-40.3,46.1c-0.6-0.6-1.3-1.1-1.9-1.7
	c12-13.8,24-27.6,36-41.4c-5.8,1-10.4,3-15,4.7c-4.6,1.6-9.4,2.9-14.9,4.5c13.1-6.7,26.4-11.2,36.8-19.5c10.2-8.1,17.4-20,27-31.5
	c-22.2,8.3-42.1,15.8-62.1,23.4c-0.3-0.7-0.5-1.4-0.8-2.2c14.6-5.9,29.4-11.4,43.7-18c10.9-5.1,21.4-11.2,31.6-17.8
	c4-2.6,6.4-7.7,9.7-11.5c8.1-9.1,16.3-18.2,25.7-28.6c-22,8.5-42.3,16.2-62.5,24.1c-27.8,10.9-56,17.9-62.7,15.6
	c67-16.6,130.3-41.9,184.5-89.4c-19.5,0-38.7-1-57.7,0.2c-19.6,1.2-39.2,3.6-58.4,7.2c-18.7,3.5-37.1,9.1-55.6,13.7
	c-0.2-0.8-0.4-1.6-0.6-2.4c20.8-5.4,41.6-10.8,64.8-16.7c-12.4-14.6-23.9-28.1-34.7-40.8c14,7.8,23.5,21.6,33,35.4
	c1.5,2.2,4.5,5.3,6.5,5c13.6-1.9,27.2-4.5,41-6.9c-8.8-21.1-23.4-37.1-38.7-52.6c18.8,14,34,30.8,42.9,51.8
	c19.6,0.4,38.8,0.7,57.9,1l1.1-1.7c-8.7-5.7-17.4-11.5-26.1-17.2s-18.3-10.4-25.7-17.4c-7.7-7.3-13.1-17-17.4-22.7
	c-18.3-3.7-33.9-6.8-49.9-10.1c3.2,8.1,0.9,12.9-8.5,13.2c-1.1,0-2.9,1.1-3.1,2c-1.6,7.4-8,6.4-12.9,7s-9.9-0.3-15-0.5
	c2.8,17-5,25.8-21.7,25c6,13,4.5,15.9-7.5,19.5c-5.2,11.6-9.5,21.3-14.1,31.5c3.1-0.1,5.1,0,7-0.2c11.8-1.3,18.9,9.1,29.3,11.7
	c1.3,0.3,2.6,7,1.5,9.9c-3.6,9.7-12.6,12.8-22.3,14.7c6.4,12.5-5.2,10.2-9.9,13.4c1.1,13.3-13.3,10.8-18.8,18.9
	c3.3,1.4,6.2,2.8,9.2,3.7c12.7,3.8,13.6,6.6,4.8,15.4c-0.3,0.3-0.1,1.1-0.1,1.6c2.6,1.2,5.2,2.4,7.7,3.5c-1.6,4.2-2.4,7.9-4.3,10.9
	c-2,3.2-5.2,5.7-8.1,8.7c5.6,2.8,12.2-0.1,14.5,9.8c1.8,8,0.4,11.5-5.6,15.4c9.8,4,10.7,6.8,5.9,15.3c-0.9,1.6-2.5,4.1-2,5.1
	c6.2,11.5-1.3,18.7-7.7,26.3c-1.2,1.5-2.4,3-3.6,4.5c5.1-0.1,8.9-1.7,13-2.7c6.5-1.6,13-2.7,19.5-4.2c3.9-0.9,7.6-2.3,11.4-3.3
	c4-1,8.7-3.7,11.8-2.4c5.6,2.4,8-0.7,11.8-3.1c6-3.7,12.5-8,19.1-8.8c4.1-0.4,5.7-1.4,7.5-4.1c9.3-14.1,18.4-28.2,27.9-42.1
	c9.2-13.5,24.5-14.5,31.3-2.1c4.5,8.2,5.8,17.3,1.8,25.8c-4.9,10.2-11.3,19.7-17.3,29.9c5,5.8,5,5.9-0.1,16.3
	c2.5,13.5,4.7,25.4,6.9,37.5c7.4-2.1,16.6-9.1,19.2,5.9c0,0.2,0.3,0.6,0.5,0.6c10.4,2.1,9.9,11.5,12.5,19.8
	c7.2-5.7,12.8-4.2,19.1,1.7c5.4,5.1,7.3,17.1,19.5,11.7c0.8-0.4,3.7,5.1,6.2,7.2c3.5,2.9,7.3,5.3,11.2,7.6c2.1,1.2,5,1.4,6.8,2.9
	c6.3,5.1,12.3,10.6,18.3,15.9c1.8-5.5,2.6-12.1,5.9-16.8c3.2-4.6,8.7-8.8,14-10.5c4.5-1.5,7.1-2.5,8.5-7.2c1.7-5.7,4-11.2,12.1-10.2
	c1.5,0.2,4.5-3.5,5-5.7c3-12.7,9.6-17.6,22.1-15.9c0.4,0,0.9-0.5,1.4-0.8c0.1-1,0.6-2.2,0.3-3.2c-3.8-11.7,8.2-17.6,10.1-27.3
	c0.2-1.1,3.2-2.3,5-2.4c4-0.2,8.1,0.2,12.9,0.4c-1-7.7-7.4-15.3-1-23.1c0.2-0.2-0.3-1-0.4-1.6c-1-4.9-2-9.7-3.5-17
	c-7.9-5.9-8.5-8-2-15.1c-8.5-7.2-17.4-14.1-25.5-21.8c-4.9-4.6-9.2-10.4-6.5-17.8c2.7-7.6,9.1-8.4,16.5-8.5
	c13-0.2,21.6,6.8,30.2,15.1c8.3,8.1,17.1,15.7,27.4,25c-0.3-13.3,6.9-13.7,14.2-12.2c6.4,1.4,12.5,4.2,18.8,6.4
	c-0.1-0.8-0.2-1.5-0.3-2.3c21.8-3,43.7-5.7,68.2-4.5c-12-9.2-26.1-13.5-24.1-30.1c0-0.3-0.7-0.9-1.2-1.2c-7.7-4.9-8.7-10.8-1.1-18.1
	c-10-0.4-8.1-6.4-9.2-12.3c-1.5-7.8,3.1-10.3,7.7-13.4c-5.2-6.9-19.8-8.5-10.8-21.6c-9-7.5-8.9-10.8,0.2-17.9
	c2.4-1.9,4.9-3.5,6.3-4.5c-6.3-2.7-12.5-5.2-18.6-8c-2.2-1-3.8-3.1-5.9-4.3c-2.1-1.2-5.8-1.2-6.7-2.9c-3.8-7.1-10.3-6.4-16.7-7.7
	c-12.7-2.5-19.5-15.2-11.5-21.6c8.5-6.8,14.5-17.7,27.1-18.6c1.3-0.1,2.6-1.8,2.2-1.5C741.4,265,736.3,258,731,251
	c-0.7-0.9-1.8-1.7-2.8-1.9c-13.7-2.4-14.5-3.2-16.2-16.1c-16.3,2.3-24.8-3.3-27.2-18c-1.1,0.2-2.3,0.3-3.3,0.6
	c-9.2,2.6-18.5,8.8-27.6-0.4c-0.5-0.5-1.7-0.5-2.4-0.3c-8.9,2.7-12.2-2-12.4-10.2c-2.8,1.5-5.3,2.3-7.1,4
	c-6.8,6.2-18.1,5.2-22.8,14.8c-3.8,7.8-9.3,11.1-18.1,5.1c-2,4.1-3.9,7.5-5.4,11.1c-4.7,11.3-8.7,22.9-13.9,34
	C567,283.9,559,291,548.1,295c-4.9,1.8-12.3,2.9-10.7,11.4c16.5-4,32.6-7.8,48.7-12.1c3.2-0.9,7-3.1,8.7-5.9
	c8.5-13.9,16.7-28.1,24.6-42.5c4.5-8.2,8.4-16.8,12.6-25.2c0.7,0.4,1.5,0.7,2.2,1.1c-11,23.2-22,46.5-33,69.9
	c13.9-3.3,29.2-7,44.4-10.8c0.9-0.2,1.8-1.8,2.2-2.9c3.1-8,5.4-16.5,9.4-24c4.6-8.8,10.8-16.7,16.2-25c0.8,0.6,1.6,1.1,2.5,1.6
	c-12.2,14.2-20.2,30.6-25.2,49.1c22.1-2.5,43.5-5,64.9-7.5c0.1,0.9,0.2,1.8,0.3,2.8c-58.3,3.3-113.5,20.6-170.8,35.4
	c10,4.3,18.2,8.3,26.7,11.4c12.3,4.5,23.7,14.5,38.3,7.4c0.4-0.2,1,0.4,1.6,0.4c26.5,3.3,53,6.5,79.5,9.8c10,1.2,20.1,2.2,30.2,3.3
	c-40,2-78.7-13-119.1-7.4c6,4.4,12.4,7.2,18.4,10.9c18.8,11.5,37.4,23.4,56.3,34.8c2.4,1.4,6,1.8,8.8,1.4c12.4-1.8,24.7-4.9,37.1-6
	c8.7-0.8,17.6,0.6,26.4,1.1c0,0.8,0,1.6,0,2.4c-21.2-2.7-41.5,1-61.9,7.7c11.6,8,23.4,15,35.4,21.7c1.2,0.7,3.5-0.6,5.3-1
	c9.2-1.7,18.5-3.3,27.7-5c0.1,0.9,0.3,1.8,0.4,2.7c-8.9,3.2-20-1.9-28.6,7.2c15,9,29.2,17.5,43.5,26c-0.3,0.4-0.5,0.9-0.8,1.3
	c-14.8-8.1-29.6-16.3-44.4-24.5c-1,0.5-2,0.9-3,1.4c2,9.5,4,19,5.9,28.5c-2.8-8.1-5.2-16.4-6.4-24.9c-0.8-5.4-1.6-9.7-6.9-12.4
	c-7.2-3.7-14.3-7.8-21.3-12c-26.1-15.8-52.1-31.7-78.3-47.4c-5-3-10.4-5.3-15.6-8c1.7,6.7,4.3,12.3,7.9,17.1
	c15.9,21.4,39.2,34.7,58.1,52.8c8.5,8.1,16.4,16.9,24.5,25.3c-1.9,1.2-2.7,1.2-3,0.9c-17.8-25.5-45.8-39.8-67.5-61
	c-8.8-8.6-17.1-18.4-23-29.1c-3.9-7.1-8-13.2-15-15.9c-15.7-6.1-31.8-11.1-49.2-17c0,6.9-0.1,11.2,0.1,15.6
	c0.8,22.2,4.2,43.7,16.4,63.1c19.1,30.2,44.9,54.2,71.1,78c9.7,8.9,18.6,18.6,27.9,27.9c-2.1,1-3,0.8-3.6,0.2
	c-17-16-34.5-31.5-50.9-48.1c-13.8-14-26.8-28.8-39.3-44c-6.3-7.5-10.8-16.6-17.5-27.1c1.7,15.8,3.1,29,4.7,42.2
	c2.1,18.4,4.2,36.8,6.8,55.1c0.4,3.1,2.7,6.8,5.2,8.7c18.7,14.1,37.7,27.7,56.5,41.7c2.1,1.5,3.5,4,5.2,6c-0.3,0.4-0.7,0.7-1,1.1
	c-20.7-15.3-41.5-30.6-64-47.2c1.7,13.4,3.3,24.4,4.4,35.4c0.6,5.9,3.3,9.8,8.5,12.6c4.5,2.4,8.6,5.5,12.8,8.4
	c9.7,6.6,16.2,15.4,17.4,23.2c-21.8-25.8-22.5-26.1-34.5-29.7C563.4,556.7,567.7,576.5,571.9,596.3L571.9,596.3z M211.5,634
	c8.3-12.6,10.7-30.1,4.7-44.3c-6.2-14.7-15.8-25.5-33.1-28.1c-21.8-3.3-44.8,14.2-53,29c-12.6,22.4-6.5,50.7,20.1,60.8
	C166.8,657.7,199.4,655,211.5,634z M225.4,653.8c-1.7-1.1-3.2-2.3-5-3.3c-7.3-3.8-14.1-5.3-20.9,1.9c-10.1,10.7-22.1,17.7-37.5,17.6
	c-2,0-4.5,3-5.9,5.1c-1.7,2.5-2.4,5.6-3.7,8.3c-5.8,12.1-2.9,31,6,40.6c14.3,15.5,31.6,18.7,51.3,13.4c17.6-4.7,29.8-15.2,33.9-33.2
	C247.9,684.8,239.8,663.3,225.4,653.8L225.4,653.8z M309,342.5c4.2-9.2,8-17.2,11.4-25.4c1.1-2.5,2.5-6.7,1.4-8.1
	c-6.5-8-15.1-13-25.8-12.8c-28.2,0.5-43.5,13.7-53.8,35c-10.9,22.5,0.6,48.3,23.3,54.5c8.9,2.4,18.7,4.1,27.8,3.1
	c21.8-2.4,41.7-22.9,39.6-47.1C325.9,341.7,318.8,342,309,342.5L309,342.5z M181.9,533c22.8,14.9,59.7,11.4,74-19.2
	c1.1-2.5,1.1-7.2-0.5-8.9c-11.1-12-14.2-26.3-13.2-41.9c0.3-5.5-1.5-9.7-6.6-11c-6.8-1.8-14.1-4.1-20.9-3.5
	c-20,1.8-34.1,13.6-43.6,30.4C159.6,498.9,164.5,521,181.9,533L181.9,533z M143.3,720c-13.3,15.4-28.8,26.4-51,24
	c-2.1-0.2-5.5,1.7-6.5,3.5c-6.2,11.9-8.2,24.1-2,36.8c9.6,19.7,30.5,27,52.6,22.9c24.5-4.5,37.7-20.8,39.7-46c0.4-5-0.7-9.8-7.8-11
	c-3.7-0.7-7.8-3.9-10.1-7.1C152.6,735.7,148,727.5,143.3,720L143.3,720z M323.3,414.3c-6.5-1.6-12.2-3.9-18-4.2
	c-20.6-1.1-36.1,9.4-47.8,24.8c-11.3,14.8-14,37.1-0.4,52.6c13.2,15,30.1,16.3,48.6,14.9c13.1-1,14.1-12.8,20.5-19.8
	c0.5-0.6-0.6-3.9-1.8-4.5c-10-5.9-10.1-6.1-2-11.1c0.9-5.2,1.6-9.3,2.3-13.7c-3.4-0.1-6.7-0.1-10-0.3c-5.2-0.2-6.6-2.7-3.5-7
	c4.2-5.7,8.6-11.2,13-17c-3.4-1.6-6-2.8-9.4-4.4C317.5,421.2,319.6,418.7,323.3,414.3L323.3,414.3z M253.3,268
	c-6.3-1.4-13.8-4.9-20.7-4.1c-22.8,2.5-39.5,13.6-50,35.4c-10.3,21.4,0.6,47.1,24,55.3c7.9,2.8,25.2-6.6,26.3-15
	c2.9-21.5,12.6-38.6,29.9-51.7c1.5-1.1,2.6-5.3,1.8-6.6C261.7,276.9,257.9,273.2,253.3,268L253.3,268z M53.3,597.9
	c-9.1,14.5-10,28.8-2.1,42.8c12.9,23,51.1,22.9,68.3,8.2c2-1.7,2.6-6.1,2.2-9.1c-1.1-9.6-3.9-19.2-4-28.8c-0.1-5.5-1.9-9.1-4.8-13.1
	c-4.5-6.2-9.7-12.2-12.7-19.2c-2.4-5.5-5.4-6.5-10.1-5.3C74.9,577.5,62,585.3,53.3,597.9z M391.3,226.5c6.2,0.3,12,0,17.4,1.1
	c10.6,2.1,21.1,5,31.6,7.4c0.9,0.2,2.3-0.4,2.9-1c6.8-6.9,11.2-2.5,15.4,3.1c3,4,6.2,7.8,8.8,12.1c2.7,4.4,4.8,4.8,8,0.5
	c7.5-9.9,12.5-20.8,11.4-33.3c-2.3-26.7-21.8-49.6-52.6-42.4C415.2,178.4,391.2,199.7,391.3,226.5L391.3,226.5z M64.8,671.3
	c-9.5,15.1-2.5,41.3,13.3,50.9c17,10.3,45.8,8.7,60.7-3.9c2.4-2.1,4.8-6.4,4.4-9.3c-1.9-12,0.5-23.2,4.6-34.3c1.5-4,0.6-6.5-3.1-9
	c-7.1-4.8-13.7-10.3-20.8-15.7C108.9,667.7,91,680.9,64.8,671.3L64.8,671.3z M384.9,227.3c-0.4-17.2,5.1-33.2,15.8-47.6
	c1.3-1.8,2-5.3,1.2-7.2c-3.3-7.4-8.7-12.6-16.5-15.7c-26.4-10.6-52.5,6.9-64.1,26.1c-1.3,2.2-1.9,5.4-1.6,8
	c0.8,6.8,2.1,13.6,3.4,20.4c0.2,1.1,1.2,2.7,2.2,3c12,3.7,20.3,11.9,26.4,21.4C362.9,232.9,373.4,230.2,384.9,227.3L384.9,227.3z
	 M53.7,694.6c-28.8,4.5-52.8,36.1-46,61.4c6.4,23.8,34.9,38.9,64.8,27.7c1.9-14,3.9-27,5.4-40.1c0.2-2.2-0.9-5.7-2.6-6.7
	C59.2,727.1,55.7,711.3,53.7,694.6L53.7,694.6z M305.7,559c-2.7,5.2-5,11-8.4,16c-3,4.5-2.3,7.2,1.5,10.7
	c12.6,11.6,17.5,26.1,14.2,43c-0.9,4.4,0.1,6.1,4.6,6.7c26.2,3.1,50.5-10.3,56.5-37.7c3.2-14.6-0.8-24-13.2-32.6
	c-4.1-2.8-7.2-7-11.2-9.9c-1.9-1.4-5.6-2.5-7.2-1.6C331.2,560.5,319.1,561.7,305.7,559L305.7,559z M297.8,554
	c-11.2-5.5-19-14.3-20.9-26c-1.5-9.4-6-14-15.1-16.9c-11.4,19.2-23.9,37.8-47.8,44.4c12.2,11.4,15.1,19.6,15.9,43.7
	C261.5,608.9,296.6,592.5,297.8,554z M226.5,187c-0.1-1.2-0.3-2.4-0.4-3.5c-7.8-0.9-15.6-2.9-23.2-2.4c-14.8,1.1-26.4,8.6-37,19.1
	c-13.6,13.5-19.7,41.1-3.3,59.6c10.7,12.2,20.8,13.1,31,5.1c12.2-9.5,20-19,18.2-36.3C210.1,213.8,216.8,199.4,226.5,187L226.5,187z
	 M538.6,52.6c-2.1-1.4-4.1-3.1-6.4-4.2c-9.8-4.8-20.2-8.2-30.1-1.5c-9.1,6.1-12.9,15.6-11.9,26.6c2.3,24,30.6,45.9,52.8,47
	c13,0.7,25.5-8.6,24.3-18.2C564.8,81.9,557,64.1,538.6,52.6L538.6,52.6z M313.1,180c2.5-5.1,3.8-9.9,6.7-13.3
	c6.4-7.5,6.3-15.1,3.6-24c-5.2-17.2-19.7-29.9-36.4-30.6c-24.4-0.9-51.8,21.4-55.6,45.8c-0.5,3.4,0.8,8,2.9,10.7
	c3.3,4.3,7.8,3.5,12.8,0.9C269.9,157.6,292.8,158.9,313.1,180L313.1,180z M226.4,614.5c-1.4,2.2-2.6,3.8-3.6,5.5
	c-3.1,5-6.3,9.3,3.1,12.1c5.9,1.8,11.3,6.5,16,10.9c11.2,10.8,14.3,24.7,12.9,42c8.8-2.7,17.1-3.9,24.2-7.6
	c28.9-15,32.2-55.7,9.3-76.7c-4.1-3.8-5.3-4.8-10.2-0.4C263.7,613.6,247.2,621.4,226.4,614.5L226.4,614.5z M160.6,481.1
	c0.5-0.5,1.4-1,1.6-1.7c6.3-16.7,14.1-32.3,30.6-41.6c1-0.5,1.5-2.7,1.4-4.1c-0.7-14-1.6-28-2.6-43.1c-10.7-1.9-22.6,0.1-33.6,6.6
	c-15.9,9.4-26.4,23.1-29,41.4C126.4,457.2,137.1,470.7,160.6,481.1L160.6,481.1z M218.9,245.8c10.6,0.7,20.2,1.7,29.8,1.6
	c3-0.1,7.1-2.7,8.7-5.4c8.7-14.7,20.8-24.8,37.5-28.6c4.9-1.1,10.1-0.9,16.2-1.4c-15.4-28-34.2-37.7-54.4-29.7
	C228.1,193.7,210.9,220.5,218.9,245.8L218.9,245.8L218.9,245.8z M140.5,492.6c-5.4-10.1-10.3-19.9-15.7-29.3
	c-0.9-1.6-4.3-2.6-6.5-2.6c-20.8,0.6-34.5,12.2-46.6,28.3c-15.8,21.2-6.1,56.5,23.6,62.6C99,522.9,110.6,499.8,140.5,492.6z
	 M203.1,372.3c-31.8-16.6-33.5-44.3-29-74.1c-13.7,0.8-23.4,7.4-32.4,15.1c-23.8,20.3-27.2,58.8,5.4,73.5
	C163.2,373.7,181.5,368.7,203.1,372.3L203.1,372.3z M75,791.6c-11.6,8.5-24.8,13.8-40.6,9.2c-1.6-0.5-5.7,2.7-6.4,4.9
	c-5.7,17.5-0.5,31.7,17.7,42c22.7,12.8,50.8,5.9,63.1-18c2.2-4.3,1.9-7.5-4-9.3c-5.1-1.5-10.4-4.2-14-7.9
	C84.9,806.3,80.2,798.7,75,791.6L75,791.6z M373,523.1c-5,6.4-10.5,13.4-16.2,20.6c13.9,15,30.9,16.4,48.3,13
	c18.7-3.7,32.2-15.2,36.1-34.2c3-14.4,1.1-29.1-9.2-41.7c-10.4,10.8-13.9,26.4-28.2,33.2c-1.2-2.4-2.2-4.5-3.2-6.5
	C389.6,509.8,386,524.3,373,523.1L373,523.1z M156,508.6c-23.5-3.2-46.4,13.8-52.8,36.5c-4.4,15.7,2.4,33.3,19.3,41.8
	c9.3-22.6,25-38.3,48.2-42.5C165.9,532.8,161.2,521.3,156,508.6L156,508.6z M204.6,433.3c14.4-4.6,28.3-4.5,41.6,2.4
	c7.3-11.1,14.2-21.5,20.8-31.4c-7.2-4.7-16.2-8.5-22.1-15.2c-6.2-7-9.3-16.6-13.9-25.1C204.1,375.5,188.4,407.9,204.6,433.3z
	 M263.8,251.7c7,9.1,13.5,17.5,19.4,25.2c12.1,1.5,24.2,3.1,35.4,4.5c5.1-9.2,10.6-19.8,16.8-30c2.8-4.6,2.4-7.3-1.5-10.7
	C309,218.8,279.7,232,263.8,251.7L263.8,251.7z M498.3,219.1c-1.9,0.1-4.4,2.6-5.3,4.5c-2.3,5-3.8,10.4-5.1,14.2
	c9.4,6.2,18.4,12.1,28.1,18.6c23.7-8.7,44.3-46.2,31.1-68.7c-2,1.9-4,3.6-5.8,5.5 M322.5,94.1c11.5,7.6,24.1,2.6,28.1-10.7
	c4.3-14.3,0.6-27-6.8-39.2c-3-5-5.5-10.9-12.5-10.3c-8.4,0.7-14.4,5.7-18.4,13c-0.9,1.7-1.2,3.7-1.8,5.5
	C307.1,66,310.4,87.4,322.5,94.1L322.5,94.1z M474.8,161.3c14.5,10.3,22.4,24.2,22.4,42.4c0,4.7,2.7,4.3,6.8,3.2
	c15.3-3.9,25-15.1,34.8-26c1.2-1.4,0.8-6.5-0.7-7.6c-8.2-6.1-16.4-12.7-25.7-16.8C497.6,150,481.6,150.4,474.8,161.3L474.8,161.3z
	 M371.4,517.5c-4,1.9-5.9,3.3-8,3.8c-4.9,1.1-9.9,1.7-14.8,2.7c-7,1.5-14,3.2-20.9,5.1c-7.8,2.2-15.5,4.8-23.5-1.8
	c6.9-8,13.5-15.5,20-23.1c-0.5-0.6-0.9-1.2-1.4-1.9c-11.2,10.4-24.2,16.3-40.2,16.3c8.1,18.2,22.3,25.7,39.6,26.3
	C342.6,545.8,360.3,539.6,371.4,517.5L371.4,517.5z M453.6,490.1c3.6-5.5,6.6-9.7,9.2-14.1c3.8-6.2,3.5-12.7,0.4-19.1
	c-1.8-3.8-3.8-5.1-7.4-1.3c-7,7.5-13.1,14.7-4.5,25.1C452.8,482.5,452.6,485.6,453.6,490.1L453.6,490.1z M472,258.6
	c12.4,8.2,23.4,15.4,35.6,23.5C502.7,265.7,486.4,254.6,472,258.6L472,258.6z M346.3,274.9c3.7-3.4,6.5-5.9,10-8.9
	c-2.9-2.5-7.6-7.4-8.3-6.9c-6,4.3-11.2,9.7-16.6,14.7c0.5,0.5,1.1,1.1,1.6,1.6C337.6,275.3,342.2,275.1,346.3,274.9L346.3,274.9
	L346.3,274.9z M332,365.9c8.7-1.1,15.9-2.8,20.5-11.3c-4.6-1.8-8.4-3.2-12.6-4.8C337.3,355,334.9,360,332,365.9L332,365.9z
	 M166.6,281.2c-3.9-2.2-8.5-6.2-9.7-5.3c-3.2,2.3-4.9,6.6-7.2,10.1c0.7,0.5,1.4,1,2.2,1.5C156.4,285.6,160.9,283.6,166.6,281.2
	L166.6,281.2z"/>
</svg>
