<?xml version="1.0" encoding="utf-8"?>
<!-- Generator: Adobe Illustrator 28.0.0, SVG Export Plug-In . SVG Version: 6.00 Build 0)  -->
<svg version="1.1" id="Layer_1" xmlns="http://www.w3.org/2000/svg" xmlns:xlink="http://www.w3.org/1999/xlink" x="0px" y="0px"
	 viewBox="0 0 2228.19 236.67" style="enable-background:new 0 0 2228.19 236.67;" xml:space="preserve">
<style type="text/css">
	.st0{fill:#422A24;}
</style>
<path class="st0" d="M159.66,4.35h74.27v8.86c-8.38,0.43-16.22,5.18-23.52,14.26c-7.31,9.08-14.56,22.69-21.75,40.84l-66.7,167.72
	h-8.86L30.93,40.28c-4.73-11.92-8.7-19.31-11.92-22.15S9.45,13.65,0,13.22V4.36h96.99v8.86h-2.74c-7.2,0-12.73,1.29-16.59,3.87
	c-3.87,2.58-5.8,6.12-5.8,10.63c0-0.32,0.35,1.51,1.05,5.48c0.7,3.98,1.48,6.98,2.34,9.02l58.65,140.33l42.21-106.01
	c6.01-14.71,9.02-26.69,9.02-35.93c0-8.7-2.23-15.44-6.69-20.22c-4.46-4.78-10.71-7.17-18.77-7.17L159.66,4.35L159.66,4.35z
	 M35.93,38.02l79.11,189.31c3.11-5.8,4.67-9.93,4.67-12.41s-1.56-7.19-4.67-13.86L47.53,39.3c-2.9-6.98-5.42-12.3-7.57-15.95
	c-2.15-3.65-4.89-6.36-8.22-8.14c-3.33-1.77-8-2.87-14.02-3.3c3.97,1.51,7.14,4.08,9.51,7.73c2.36,3.65,5.26,9.78,8.7,18.37
	L35.93,38.02z M207.84,13.21H176.1c8.59,4.94,13.21,13.43,13.86,25.46C194.69,27.18,200.65,18.69,207.84,13.21z"/>
<path class="st0" d="M252.79,4.35h107.3v8.86c-10.1,0.22-17.91,1.53-23.44,3.95c-5.53,2.42-8.51,7.28-8.94,14.58
	c-0.22,4.51-0.43,8.08-0.64,10.71c-0.22,2.63-0.32,3.79-0.32,3.46v148.55c0,6.34,0.67,11.39,2.01,15.14
	c1.34,3.76,3.25,6.44,5.72,8.06c2.47,1.61,5.32,2.71,8.54,3.3c3.22,0.59,8.91,1.21,17.08,1.85v8.86H252.8v-8.86
	c9.56-0.11,16.78-1.1,21.67-2.98c4.89-1.88,8.06-4.89,9.51-9.02s2.17-10.71,2.17-19.74V47.2c0-8.59-0.4-14.96-1.21-19.09
	s-2.34-7.11-4.59-8.94c-2.26-1.83-5.29-3.09-9.1-3.79c-3.81-0.7-9.96-1.42-18.45-2.17V4.35H252.79z M291.46,42.53V203
	c0,5.48-0.97,9.5-2.9,12.08s-5.26,5.16-9.99,7.73c6.98-0.21,12.62-1.37,16.92-3.46c4.29-2.09,6.44-6.69,6.44-13.78V34.63
	c0-7.3-1.51-12.78-4.51-16.43c-3.01-3.65-8.97-5.32-17.88-4.99c8.16,4.3,12.24,12.46,12.24,24.49c0,0.86-0.03,1.67-0.08,2.42
	C291.64,40.87,291.56,41.68,291.46,42.53L291.46,42.53z"/>
<path class="st0" d="M546.01,13.21V4.35h86.2v8.86c-7.2,0.22-13.51,1.83-18.93,4.83c-5.42,3.01-9.69,7.39-12.81,13.13
	c-3.12,5.75-4.67,12.65-4.67,20.7l3.06,184.8h-9.99L424.21,44.3l2.42,129.37c0.21,8.06,0.86,14.85,1.93,20.38s3.01,10.34,5.8,14.42
	c2.79,4.08,6.79,7.31,12,9.67s11.95,3.92,20.22,4.67v8.86h-85.55v-8.86c11.17-0.86,19.47-3.87,24.89-9.02
	c5.42-5.16,8.78-11.57,10.07-19.25s1.72-17.32,1.29-28.92l-2.26-131.95c-6.12-6.66-12.08-11.73-17.88-15.22
	c-5.8-3.49-11.82-5.24-18.04-5.24h-1.93V4.35h66.54l145.16,169.33l-2.26-113.26c0-8.7-0.89-16.08-2.66-22.15
	c-1.77-6.07-4.75-10.98-8.94-14.74c-3.01-3.01-7.33-5.5-12.97-7.49c-5.64-1.99-10.98-2.92-16.03-2.82L546.01,13.21z M577.11,197.68
	L431.95,28.35c-3.01-3.87-6.58-7.36-10.71-10.47c-4.14-3.11-9.96-4.67-17.48-4.67h-7.25c6.01,2.15,10.69,4.75,14.02,7.81
	s8,8.19,14.02,15.39L590.01,229.1c-0.11-3.11-0.24-6.15-0.4-9.1c-0.16-2.95-0.51-5.16-1.05-6.61s-1.56-3.25-3.06-5.4
	C583.99,205.84,581.2,202.41,577.11,197.68L577.11,197.68z M400.85,222.81h34c-4.73-3.65-8.08-7.03-10.07-10.15
	c-1.99-3.11-3.68-7.46-5.07-13.05c-1.4,5.05-3.54,9.42-6.44,13.13S406.23,219.8,400.85,222.81L400.85,222.81z M602.4,13.2h-35.28
	c5.37,1.83,9.75,4.35,13.13,7.57s6.26,7.63,8.62,13.21C591.34,24.42,595.85,17.49,602.4,13.2L602.4,13.2z"/>
<path class="st0" d="M721.14,119.23v70.89c0,7.84,0.56,13.94,1.69,18.29c1.13,4.35,3.19,7.57,6.2,9.67
	c3.01,2.09,7.33,3.41,12.97,3.95c5.64,0.54,13.34,0.81,23.12,0.81c11.81,0,22.42-1.8,31.82-5.4s18.26-8.91,26.58-15.95
	c8.32-7.03,17.43-16.41,27.31-28.11h12.89l-20.14,58.32H645.25v-8.86c9.56-0.21,16.84-1.05,21.83-2.5s8.54-3.87,10.63-7.25
	s3.14-8.19,3.14-14.42V39.33c0-7.52-0.97-13-2.9-16.43c-1.93-3.44-5.21-5.77-9.83-7.01c-4.62-1.23-12.24-2.12-22.88-2.66V4.37
	h190.44l19.49,51.4h-11.6c-6.23-7.84-13.83-14.96-22.8-21.35s-19.01-11.52-30.13-15.39s-22.85-5.8-35.2-5.8
	c-9.77,0-17.13,1.05-22.07,3.14s-8.22,5.02-9.83,8.78c-1.61,3.76-2.42,8.7-2.42,14.82v70.25h32.38c28.25,0,42.53-12.94,42.86-38.83
	h11.28v85.39h-9.99c-1.29-13.1-4.97-22.64-11.04-28.6s-15.33-8.94-27.79-8.94h-37.7L721.14,119.23z M686.18,40.61v155.8
	c0,7.84-0.91,13.59-2.74,17.24s-4.57,6.71-8.22,9.18c8.91-0.11,14.69-2.44,17.32-7.01c2.63-4.56,3.95-11.95,3.95-22.15V37.71
	c0-9.13-1.56-15.17-4.67-18.12c-3.12-2.95-8.65-4.54-16.59-4.75c3.97,2.15,6.79,5.02,8.46,8.62c1.66,3.6,2.5,9.32,2.5,17.16
	L686.18,40.61z M794.45,129.71V98.13c-4.19,7.2-11.82,12.46-22.88,15.79c5.91,1.61,10.58,3.54,14.02,5.8
	S791.98,125.31,794.45,129.71L794.45,129.71z M820.55,13.22h-29.16c8.06,2.69,15.2,5.91,21.43,9.67s12.83,8.27,19.82,13.53
	l-12.08-23.2L820.55,13.22z M827.48,222.83l11.12-28.03c-6.34,6.88-12.08,12-17.24,15.39c-5.16,3.38-12.46,7.6-21.91,12.65h28.03
	L827.48,222.83z"/>
<path class="st0" d="M889.19,149.84h10.63c5.91,16.97,13.02,31.23,21.35,42.78c8.32,11.55,17.4,20.11,27.23,25.7
	c9.83,5.59,20.11,8.38,30.85,8.38c13.43,0,24.92-4.19,34.48-12.57s14.34-19.12,14.34-32.22c0-12.24-3.17-21.78-9.51-28.6
	c-6.34-6.82-13.91-11.6-22.72-14.34s-20.41-5.29-34.8-7.65s-24.6-4.56-30.61-6.61c-9.34-3.22-17.29-7.65-23.84-13.29
	c-6.55-5.64-11.52-12.41-14.9-20.3s-5.08-16.35-5.08-25.38s1.5-16.86,4.51-24.81c3.01-7.95,7.25-14.98,12.73-21.11
	c5.48-6.12,12.16-10.96,20.06-14.5C931.8,1.78,940.59,0,950.25,0c6.98,0,15.55,0.99,25.7,2.98s17.53,2.98,22.15,2.98
	c5.8,0,11.28-1.29,16.43-3.87h12.24l6.93,66.22h-11.28c-10.53-19.76-21.56-34.83-33.11-45.19S964.2,7.57,948.63,7.57
	c-7.73,0-14.93,1.8-21.59,5.4c-6.66,3.6-12,8.57-16.03,14.9c-4.03,6.34-6.04,13.32-6.04,20.95c0,10.74,3.65,18.96,10.96,24.65
	c7.3,5.69,18.13,9.99,32.46,12.89c14.34,2.9,27.17,5.37,38.51,7.41c11.33,2.04,20.33,4.67,26.99,7.89
	c12.24,6.02,21.75,14.34,28.52,24.97s10.15,22.66,10.15,36.09s-3.12,24.92-9.34,36.09c-6.23,11.17-14.98,20.11-26.26,26.83
	c-11.28,6.71-23.84,10.07-37.7,10.07c-7.84,0-13.75-0.59-17.72-1.77c-3.98-1.18-10.79-3.49-20.46-6.93
	c-9.67-3.44-17.08-5.16-22.23-5.16c-8.59,0-15.41,3.28-20.46,9.83h-9.18v-81.85L889.19,149.84z M894.51,46.89
	c-1.83,8.16-2.74,14.77-2.74,19.82c0,5.69,0.97,11.41,2.9,17.16c1.93,5.75,4.78,11.17,8.54,16.27c3.76,5.1,8,9.26,12.73,12.49
	c6.34,4.3,13.32,7.33,20.94,9.1s18.77,3.87,33.43,6.28c14.66,2.42,24.78,4.75,30.37,7.01c10.31,3.76,18.34,9.51,24.09,17.24
	s8.62,16.81,8.62,27.23c0,7.73-2.2,15.9-6.61,24.49c8.81-9.13,13.21-19.82,13.21-32.06s-3.25-22.64-9.75-29.89
	s-14.56-12.62-24.17-16.11s-22.74-6.71-39.39-9.67c-16.65-2.95-25.19-4.48-25.62-4.59c-15.25-3.97-26.83-10.85-34.72-20.62
	S894.5,69.99,894.5,57.21c0-2.36-0.03-4.35-0.08-5.96c-0.06-1.61-0.03-3.06,0.08-4.35L894.51,46.89z M894.51,179.81v43.02
	c3.11-4.08,5.99-6.71,8.62-7.89s6.69-1.66,12.16-1.45c-3.54-4.19-6.1-7.28-7.65-9.26c-1.56-1.99-3.49-4.94-5.8-8.86
	s-4.75-9.1-7.33-15.55L894.51,179.81z M1015.99,45.6l-5.32-30.77c-3.54,1.18-7.09,1.77-10.63,1.77c-3.87,0-8.06-0.59-12.57-1.77
	c4.29,2.79,8.06,5.91,11.28,9.34c3.22,3.44,6.61,7.57,10.15,12.41S1014.81,44.42,1015.99,45.6L1015.99,45.6z"/>
<path class="st0" d="M1088.48,149.84h10.63c5.91,16.97,13.02,31.23,21.35,42.78c8.32,11.55,17.4,20.11,27.23,25.7
	s20.11,8.38,30.85,8.38c13.43,0,24.92-4.19,34.48-12.57c9.56-8.38,14.34-19.12,14.34-32.22c0-12.24-3.17-21.78-9.51-28.6
	s-13.91-11.6-22.72-14.34c-8.81-2.74-20.41-5.29-34.8-7.65s-24.6-4.56-30.61-6.61c-9.34-3.22-17.29-7.65-23.84-13.29
	c-6.55-5.64-11.52-12.41-14.9-20.3s-5.08-16.35-5.08-25.38s1.5-16.86,4.51-24.81c3.01-7.95,7.25-14.98,12.73-21.11
	c5.48-6.12,12.16-10.96,20.06-14.5c7.89-3.54,16.67-5.32,26.34-5.32c6.98,0,15.55,0.99,25.7,2.98c10.15,1.99,17.53,2.98,22.15,2.98
	c5.8,0,11.28-1.29,16.43-3.87h12.24l6.93,66.22h-11.28c-10.53-19.76-21.56-34.83-33.11-45.19c-11.55-10.36-25.11-15.55-40.68-15.55
	c-7.73,0-14.93,1.8-21.59,5.4c-6.66,3.6-12,8.57-16.03,14.9c-4.03,6.34-6.04,13.32-6.04,20.95c0,10.74,3.65,18.96,10.96,24.65
	c7.3,5.69,18.13,9.99,32.46,12.89c14.34,2.9,27.17,5.37,38.51,7.41c11.33,2.04,20.33,4.67,26.99,7.89
	c12.25,6.02,21.75,14.34,28.52,24.97s10.15,22.66,10.15,36.09s-3.12,24.92-9.35,36.09c-6.23,11.17-14.98,20.11-26.26,26.83
	c-11.28,6.71-23.85,10.07-37.7,10.07c-7.84,0-13.75-0.59-17.72-1.77s-10.79-3.49-20.46-6.93c-9.67-3.44-17.08-5.16-22.23-5.16
	c-8.59,0-15.41,3.28-20.46,9.83h-9.18v-81.85L1088.48,149.84z M1093.8,46.89c-1.83,8.16-2.74,14.77-2.74,19.82
	c0,5.69,0.97,11.41,2.9,17.16s4.78,11.17,8.54,16.27s8,9.26,12.73,12.49c6.34,4.3,13.32,7.33,20.95,9.1
	c7.62,1.77,18.77,3.87,33.43,6.28c14.66,2.42,24.78,4.75,30.37,7.01c10.31,3.76,18.34,9.51,24.09,17.24s8.62,16.81,8.62,27.23
	c0,7.73-2.2,15.9-6.61,24.49c8.81-9.13,13.21-19.82,13.21-32.06s-3.25-22.64-9.75-29.89s-14.55-12.62-24.17-16.11
	s-22.75-6.71-39.39-9.67c-16.65-2.95-25.19-4.48-25.62-4.59c-15.25-3.97-26.83-10.85-34.72-20.62s-11.84-21.05-11.84-33.83
	c0-2.36-0.03-4.35-0.08-5.96c-0.06-1.61-0.03-3.06,0.08-4.35V46.89z M1093.8,179.81v43.02c3.11-4.08,5.99-6.71,8.62-7.89
	s6.69-1.66,12.16-1.45c-3.54-4.19-6.1-7.28-7.65-9.26c-1.56-1.99-3.49-4.94-5.8-8.86s-4.75-9.1-7.33-15.55V179.81z M1215.28,45.6
	l-5.32-30.77c-3.54,1.18-7.09,1.77-10.63,1.77c-3.87,0-8.06-0.59-12.57-1.77c4.29,2.79,8.06,5.91,11.28,9.34
	c3.22,3.44,6.61,7.57,10.15,12.41S1214.1,44.42,1215.28,45.6L1215.28,45.6z"/>
<path class="st0" d="M1350.13,119.23v70.89c0,7.84,0.56,13.94,1.69,18.29c1.13,4.35,3.2,7.57,6.2,9.67
	c3.01,2.09,7.33,3.41,12.97,3.95c5.64,0.54,13.34,0.81,23.12,0.81c11.81,0,22.42-1.8,31.82-5.4c9.4-3.6,18.26-8.91,26.58-15.95
	c8.32-7.03,17.42-16.41,27.31-28.11h12.89l-20.14,58.32h-198.33v-8.86c9.56-0.21,16.84-1.05,21.83-2.5s8.54-3.87,10.63-7.25
	s3.14-8.19,3.14-14.42V39.33c0-7.52-0.97-13-2.9-16.43c-1.93-3.44-5.21-5.77-9.83-7.01c-4.62-1.23-12.24-2.12-22.88-2.66V4.37
	h190.44l19.49,51.4h-11.6c-6.23-7.84-13.83-14.96-22.8-21.35c-8.97-6.39-19.01-11.52-30.13-15.39s-22.85-5.8-35.21-5.8
	c-9.77,0-17.13,1.05-22.07,3.14s-8.22,5.02-9.83,8.78s-2.42,8.7-2.42,14.82v70.25h32.38c28.25,0,42.53-12.94,42.86-38.83h11.28
	v85.39h-9.99c-1.29-13.1-4.97-22.64-11.04-28.6c-6.07-5.96-15.33-8.94-27.79-8.94h-37.7L1350.13,119.23z M1315.17,40.61v155.8
	c0,7.84-0.91,13.59-2.74,17.24s-4.57,6.71-8.22,9.18c8.91-0.11,14.69-2.44,17.32-7.01c2.63-4.56,3.95-11.95,3.95-22.15V37.71
	c0-9.13-1.56-15.17-4.67-18.12c-3.12-2.95-8.65-4.54-16.6-4.75c3.97,2.15,6.79,5.02,8.46,8.62c1.66,3.6,2.5,9.32,2.5,17.16
	L1315.17,40.61z M1423.44,129.71V98.13c-4.19,7.2-11.82,12.46-22.88,15.79c5.9,1.61,10.58,3.54,14.02,5.8
	C1418.02,121.98,1420.97,125.31,1423.44,129.71L1423.44,129.71z M1449.54,13.22h-29.16c8.05,2.69,15.2,5.91,21.43,9.67
	c6.23,3.76,12.83,8.27,19.82,13.53l-12.08-23.2L1449.54,13.22z M1456.47,222.83l11.12-28.03c-6.34,6.88-12.08,12-17.24,15.39
	c-5.16,3.38-12.46,7.6-21.91,12.65h28.04L1456.47,222.83z"/>
<path class="st0" d="M1669.94,13.21V4.35h86.2v8.86c-7.2,0.22-13.51,1.83-18.93,4.83c-5.42,3.01-9.69,7.39-12.81,13.13
	c-3.12,5.75-4.67,12.65-4.67,20.7l3.06,184.8h-9.99L1548.14,44.3l2.42,129.37c0.21,8.06,0.86,14.85,1.93,20.38
	c1.07,5.53,3.01,10.34,5.8,14.42c2.79,4.08,6.79,7.31,12,9.67s11.95,3.92,20.22,4.67v8.86h-85.55v-8.86
	c11.17-0.86,19.47-3.87,24.89-9.02c5.42-5.16,8.78-11.57,10.07-19.25c1.29-7.68,1.72-17.32,1.29-28.92l-2.26-131.95
	c-6.12-6.66-12.08-11.73-17.88-15.22s-11.82-5.24-18.04-5.24h-1.93V4.35h66.54l145.16,169.33l-2.26-113.26
	c0-8.7-0.89-16.08-2.66-22.15c-1.77-6.07-4.75-10.98-8.94-14.74c-3.01-3.01-7.33-5.5-12.97-7.49s-10.98-2.92-16.03-2.82
	L1669.94,13.21z M1701.03,197.68L1555.87,28.35c-3.01-3.87-6.58-7.36-10.71-10.47c-4.14-3.11-9.96-4.67-17.48-4.67h-7.25
	c6.01,2.15,10.69,4.75,14.02,7.81c3.33,3.06,8,8.19,14.02,15.39l165.46,192.69c-0.11-3.11-0.24-6.15-0.4-9.1s-0.51-5.16-1.05-6.61
	s-1.56-3.25-3.06-5.4C1707.91,205.84,1705.12,202.41,1701.03,197.68L1701.03,197.68z M1524.77,222.81h33.99
	c-4.73-3.65-8.08-7.03-10.07-10.15c-1.99-3.11-3.68-7.46-5.08-13.05c-1.4,5.05-3.54,9.42-6.44,13.13
	C1534.27,216.45,1530.13,219.8,1524.77,222.81L1524.77,222.81z M1726.32,13.2h-35.28c5.37,1.83,9.75,4.35,13.13,7.57
	s6.26,7.63,8.62,13.21C1715.26,24.42,1719.77,17.49,1726.32,13.2L1726.32,13.2z"/>
<path class="st0" d="M1973.48,1.29h13.21v71.37h-9.99c-5.05-10.53-10.5-19.79-16.35-27.79c-5.86-8-12.06-14.66-18.61-19.98
	c-6.55-5.32-13.43-9.29-20.62-11.92c-7.2-2.63-14.93-3.95-23.2-3.95c-11.17,0-21.32,2.5-30.45,7.49s-16.92,12.14-23.36,21.43
	s-11.47,20.6-15.06,33.92c-3.6,13.32-5.4,27.55-5.4,42.69c0,21.16,3.54,39.96,10.63,56.39s17,29.24,29.73,38.43
	c12.73,9.18,27.2,13.78,43.42,13.78c9.99,0,19.63-1.64,28.92-4.91c9.29-3.28,18.18-8.27,26.66-14.98s16.38-15.06,23.68-25.05
	l9.51,5.32c-12.14,17.51-26.69,30.69-43.66,39.55c-16.97,8.86-36.52,13.29-58.64,13.29c-17.19,0-33.03-3.01-47.53-9.02
	s-27.01-14.42-37.54-25.21c-10.53-10.79-18.61-23.33-24.25-37.62c-5.64-14.28-8.46-29.38-8.46-45.27c0-17.18,3.06-33.16,9.18-47.93
	s14.58-27.47,25.38-38.1c10.79-10.63,23.31-18.82,37.54-24.57s29.35-8.62,45.35-8.62c6.01,0,11.62,0.46,16.84,1.37
	c5.21,0.91,11.41,2.34,18.61,4.27s12.06,3.2,14.58,3.79c2.52,0.59,5.45,0.89,8.78,0.89c8.48,0,15.52-3.01,21.11-9.02L1973.48,1.29z
	 M1860.86,8.38c-16.65,6.34-30.29,13.91-40.92,22.72c-6.12,5.16-11.55,10.96-16.27,17.4c-4.73,6.44-8.73,13.32-12,20.62
	c-3.28,7.31-5.8,15.17-7.57,23.6c-1.77,8.43-2.66,16.67-2.66,24.73c0,19.33,3.97,37.19,11.92,53.57
	c7.95,16.38,19.82,29.97,35.61,40.76s34.58,17.43,56.39,19.9c-14.29-3.76-27.31-9.29-39.07-16.59
	c-11.76-7.3-21.75-16.06-29.97-26.26s-14.39-21.29-18.53-33.27c-4.13-11.98-6.2-24.46-6.2-37.46c0-10.74,1.77-22.02,5.32-33.83
	c3.54-11.81,8.48-22.29,14.82-31.42c7.3-10.42,14.74-18.79,22.31-25.13c7.57-6.34,16.51-12.78,26.82-19.33V8.38z M1967.2,41.89
	l-0.97-27.39c-5.05,2.25-10.37,3.38-15.95,3.38c-2.69,0-5.21-0.21-7.57-0.64c5.48,4.19,10.04,8.25,13.7,12.16
	C1960.06,33.32,1963.66,37.48,1967.2,41.89L1967.2,41.89z"/>
<path class="st0" d="M2085.61,119.23v70.89c0,7.84,0.56,13.94,1.69,18.29c1.13,4.35,3.2,7.57,6.2,9.67
	c3.01,2.09,7.33,3.41,12.97,3.95c5.64,0.54,13.34,0.81,23.12,0.81c11.81,0,22.42-1.8,31.82-5.4c9.4-3.6,18.26-8.91,26.58-15.95
	c8.32-7.03,17.42-16.41,27.31-28.11h12.89l-20.14,58.32h-198.33v-8.86c9.56-0.21,16.84-1.05,21.83-2.5s8.54-3.87,10.63-7.25
	s3.14-8.19,3.14-14.42V39.33c0-7.52-0.97-13-2.9-16.43c-1.93-3.44-5.21-5.77-9.83-7.01c-4.62-1.23-12.24-2.12-22.88-2.66V4.37
	h190.44l19.49,51.4h-11.6c-6.23-7.84-13.83-14.96-22.8-21.35s-19.01-11.52-30.13-15.39c-11.12-3.87-22.85-5.8-35.21-5.8
	c-9.77,0-17.13,1.05-22.07,3.14c-4.94,2.09-8.22,5.02-9.83,8.78s-2.42,8.7-2.42,14.82v70.25h32.38c28.25,0,42.53-12.94,42.86-38.83
	h11.28v85.39h-9.99c-1.29-13.1-4.97-22.64-11.04-28.6s-15.33-8.94-27.79-8.94h-37.7L2085.61,119.23z M2050.65,40.61v155.8
	c0,7.84-0.91,13.59-2.74,17.24c-1.83,3.65-4.57,6.71-8.22,9.18c8.91-0.11,14.69-2.44,17.32-7.01c2.63-4.56,3.95-11.95,3.95-22.15
	V37.71c0-9.13-1.56-15.17-4.67-18.12c-3.12-2.95-8.65-4.54-16.6-4.75c3.97,2.15,6.79,5.02,8.46,8.62c1.66,3.6,2.5,9.32,2.5,17.16
	L2050.65,40.61z M2158.92,129.71V98.13c-4.19,7.2-11.82,12.46-22.88,15.79c5.9,1.61,10.58,3.54,14.02,5.8
	S2156.45,125.31,2158.92,129.71L2158.92,129.71z M2185.02,13.22h-29.16c8.05,2.69,15.2,5.91,21.43,9.67s12.83,8.27,19.82,13.53
	l-12.08-23.2L2185.02,13.22z M2191.95,222.83l11.12-28.03c-6.34,6.88-12.08,12-17.24,15.39c-5.16,3.38-12.46,7.6-21.91,12.65h28.04
	L2191.95,222.83z"/>
</svg>
